<?xml version="1.0" encoding="UTF-8" standalone="no"?>
<svg
   xmlns:dc="http://purl.org/dc/elements/1.1/"
   xmlns:cc="http://creativecommons.org/ns#"
   xmlns:rdf="http://www.w3.org/1999/02/22-rdf-syntax-ns#"
   xmlns:svg="http://www.w3.org/2000/svg"
   xmlns="http://www.w3.org/2000/svg"
   xmlns:sodipodi="http://sodipodi.sourceforge.net/DTD/sodipodi-0.dtd"
   xmlns:inkscape="http://www.inkscape.org/namespaces/inkscape"
   version="1.1"
   id="svg2"
   xml:space="preserve"
   width="528.17944"
   height="823.96344"
   viewBox="0 0 528.17944 823.96344"
   sodipodi:docname="logo_selection.svg"
   inkscape:version="1.0.1 (3bc2e813f5, 2020-09-07)"><metadata
     id="metadata8"><rdf:RDF><cc:Work
         rdf:about=""><dc:format>image/svg+xml</dc:format><dc:type
           rdf:resource="http://purl.org/dc/dcmitype/StillImage" /><dc:title></dc:title></cc:Work></rdf:RDF></metadata><defs
     id="defs6" /><sodipodi:namedview
     pagecolor="#ffffff"
     bordercolor="#666666"
     borderopacity="1"
     objecttolerance="10"
     gridtolerance="10"
     guidetolerance="10"
     inkscape:pageopacity="0"
     inkscape:pageshadow="2"
     inkscape:window-width="640"
     inkscape:window-height="480"
     id="namedview4"
     showgrid="true"
     inkscape:snap-bbox="true"
     inkscape:bbox-paths="true"
     inkscape:bbox-nodes="true"
     inkscape:snap-bbox-edge-midpoints="true"
     inkscape:snap-bbox-midpoints="true"
     inkscape:snap-intersection-paths="true"
     inkscape:snap-smooth-nodes="true"
     inkscape:object-paths="true"
     inkscape:snap-global="false"
     inkscape:zoom="2.8284271"
     inkscape:cx="-196.12646"
     inkscape:cy="-615.24484"
     inkscape:current-layer="g10"><inkscape:grid
       type="xygrid"
       id="grid1211" /></sodipodi:namedview><g
     id="g10"
     inkscape:groupmode="layer"
     inkscape:label="logo_selection"
     transform="matrix(1.3333333,0,0,1.3333333,0,2.0599087e-5)"><g
       id="g12"
       transform="translate(2.4770023,-0.61300651)"><path
         d="m 258.316,339.652 c 0,20.176 16.36,36.536 36.536,36.536 20.175,0 36.535,-16.36 36.535,-36.536 0,-20.175 -16.36,-36.535 -36.535,-36.535 -20.176,0 -36.536,16.36 -36.536,36.535 z"
         style="fill:#fafafa;fill-opacity:1;fill-rule:nonzero;stroke:none"
         id="path14" /><path
         d="m 319.352,342.637 c -0.434,3.574 -2.661,6.195 -4.563,9.254 l -19.996,-12.207 16.211,16.906 c -5.352,5.195 -11.75,8.515 -19.156,7.625 l 0.976,-8.145 c -1.347,-0.16 -2.676,-0.492 -3.945,-0.976 l -2.934,7.633 c -1.476,-0.567 -2.91,-1.25 -4.261,-2.094 l -4.379,7 c 1.8,1.125 3.683,2.035 5.652,2.793 2.484,0.972 5.145,1.625 7.906,1.988 9.883,1.188 19.774,-2.152 26.914,-9.086 1.934,-1.863 3.606,-3.941 5.051,-6.269 2.531,-4.082 4.145,-8.668 4.719,-13.438 z m -49.102,0.105 -8.184,1.016 c 0.883,7.051 4.016,13.625 8.934,18.75 l 5.961,-5.715 c -3.691,-3.84 -6.043,-8.766 -6.711,-14.051 z"
         style="fill:#d4d4d4;fill-opacity:1;fill-rule:nonzero;stroke:none"
         id="path16" /><path
         d="m 320.352,318.727 c 1.71,2.105 3.187,4.414 4.332,6.894 l -29.887,14.063 z"
         style="fill:#0e9a83;fill-opacity:1;fill-rule:evenodd;stroke:none"
         id="path18" /><path
         d="m 294.797,339.684 13.933,-29.993 c 2.485,1.153 4.77,2.579 6.852,4.278 z"
         style="fill:#0e9a83;fill-opacity:1;fill-rule:evenodd;stroke:none"
         id="path20" /><path
         d="m 294.797,339.684 -0.035,-33.051 h 0.269 c 2.653,0 5.239,0.34 7.723,0.949 z"
         style="fill:#0e9a83;fill-opacity:1;fill-rule:evenodd;stroke:none"
         id="path22" /><path
         d="m 326.832,331.602 c 0.672,2.582 1.008,5.296 1.039,8.082 h -33.074 z"
         style="fill:#0e9a83;fill-opacity:1;fill-rule:evenodd;stroke:none"
         id="path24" /><path
         d="m 302.996,340.672 c -0.555,4.519 -4.66,7.738 -9.184,7.195 -3.757,-0.453 -6.73,-3.402 -7.207,-7.156 l -8.203,1.019 c 0.95,7.524 6.895,13.434 14.422,14.34 9.055,1.09 17.278,-5.363 18.379,-14.414 z"
         style="fill:#d4d4d4;fill-opacity:1;fill-rule:nonzero;stroke:none"
         id="path26" /><path
         d="m 265.172,317.996 h 1.676 v -4.273 c 0,-2.282 -1.536,-2.586 -2.739,-2.586 -1.156,0 -2.101,0.355 -2.742,0.789 l 0.524,1.375 c 0.629,-0.43 1.285,-0.668 2.074,-0.668 0.773,0 1.207,0.328 1.207,1.062 v 0.34 c -0.41,-0.195 -0.895,-0.312 -1.535,-0.312 -1.325,0 -2.664,0.668 -2.664,2.215 0,1.468 1.074,2.218 2.465,2.218 0.878,0 1.417,-0.328 1.734,-0.644 z m -1.406,-1.336 c -0.735,0 -1.125,-0.289 -1.125,-0.722 0,-0.551 0.574,-0.774 1.285,-0.774 0.457,0 0.89,0.078 1.246,0.223 v 0.722 c -0.328,0.301 -0.789,0.551 -1.406,0.551 z"
         style="fill:#273445;fill-opacity:1;fill-rule:nonzero;stroke:none"
         id="path28" /><path
         d="m 271.125,318.156 c 0.68,0 1.168,-0.238 1.441,-0.644 v 0.484 h 1.707 v -9.469 l -1.707,0.774 v 2.48 c -0.3,-0.379 -0.761,-0.644 -1.429,-0.644 -1.598,0 -2.782,1.34 -2.782,3.504 0,2.269 1.09,3.515 2.77,3.515 z m 0.273,-1.64 c -0.878,0 -1.336,-0.723 -1.336,-1.875 0,-1.207 0.485,-1.864 1.336,-1.864 0.59,0 0.985,0.301 1.168,0.551 v 2.649 c -0.25,0.355 -0.601,0.539 -1.168,0.539 z"
         style="fill:#273445;fill-opacity:1;fill-rule:nonzero;stroke:none"
         id="path30" /><path
         d="m 280.043,317.996 h 1.676 v -4.273 c 0,-2.282 -1.531,-2.586 -2.739,-2.586 -1.156,0 -2.097,0.355 -2.742,0.789 l 0.524,1.375 c 0.633,-0.43 1.285,-0.668 2.074,-0.668 0.773,0 1.207,0.328 1.207,1.062 v 0.34 c -0.406,-0.195 -0.895,-0.312 -1.535,-0.312 -1.324,0 -2.664,0.668 -2.664,2.215 0,1.468 1.078,2.218 2.468,2.218 0.879,0 1.415,-0.328 1.731,-0.644 z m -1.402,-1.336 c -0.735,0 -1.129,-0.289 -1.129,-0.722 0,-0.551 0.578,-0.774 1.285,-0.774 0.457,0 0.891,0.078 1.246,0.223 v 0.722 c -0.328,0.301 -0.789,0.551 -1.402,0.551 z"
         style="fill:#273445;fill-opacity:1;fill-rule:nonzero;stroke:none"
         id="path32" /><path
         d="m 283.559,317.996 h 1.703 v -3.734 c 0,-1.157 0.562,-1.446 1.152,-1.446 0.527,0 0.906,0.172 1.223,0.395 l 0.234,-1.563 c -0.379,-0.312 -0.801,-0.511 -1.363,-0.511 -0.668,0 -1.051,0.328 -1.246,0.75 v -0.59 h -1.703 z"
         style="fill:#273445;fill-opacity:1;fill-rule:nonzero;stroke:none"
         id="path34" /><path
         d="m 256.004,317.996 h 1.703 v -3.734 c 0,-0.614 0.355,-1.446 1.156,-1.446 0.524,0 0.903,0.172 1.219,0.395 l 0.234,-1.563 c -0.378,-0.312 -0.796,-0.511 -1.363,-0.511 -2.047,0 -2.949,1.402 -2.949,3.472 z"
         style="fill:#273445;fill-opacity:1;fill-rule:nonzero;stroke:none"
         id="path36" /><path
         d="m 253.344,321.941 h 5.234 v 17.789 h -5.234 z"
         style="fill:#000000;fill-opacity:1;fill-rule:nonzero;stroke:none"
         id="path38" /><path
         d="m 262.359,321.941 -8.23,10.274 3.383,3.894 11.215,-14.062 -0.094,-0.106 z"
         style="fill:#000000;fill-opacity:1;fill-rule:nonzero;stroke:none"
         id="path40" /><path
         d="m 262.359,339.73 -8.23,-10.273 3.383,-3.898 11.215,14.062 -0.094,0.109 z"
         style="fill:#000000;fill-opacity:1;fill-rule:nonzero;stroke:none"
         id="path42" /><path
         d="m 270.488,321.941 h 5.234 v 17.789 h -5.234 z"
         style="fill:#000000;fill-opacity:1;fill-rule:nonzero;stroke:none"
         id="path44" /><path
         d="m 281.836,321.941 h 5.234 v 17.789 h -5.234 z"
         style="fill:#000000;fill-opacity:1;fill-rule:nonzero;stroke:none"
         id="path46" /><path
         d="m 277.938,321.941 h 13.035 v 5.234 h -13.035 z"
         style="fill:#000000;fill-opacity:1;fill-rule:nonzero;stroke:none"
         id="path48" /><path
         d="m 244.09,321.922 -6.266,9.058 v 5.243 h 6.266 v 3.507 h 5.238 v -3.507 h 1.602 v -5.243 h -1.602 v -9.058 z"
         style="fill:#273445;fill-opacity:1;fill-rule:nonzero;stroke:none"
         id="path50" /><path
         d="m 245.023,327.922 -2.117,3.062 h 2.117 z"
         style="fill:#fafafa;fill-opacity:1;fill-rule:nonzero;stroke:none"
         id="path52" /><path
         d="M 67.578,357.188 C 58.375,348.844 54.605,336.051 57.82,324.047 l 31.996,8.578 z"
         style="fill:#abacae;fill-opacity:1;fill-rule:nonzero;stroke:none"
         id="path54" /><path
         d="m 58.977,320.527 c 5.414,-13.812 19.343,-22.343 34.101,-20.882 14.758,1.46 26.75,12.558 29.352,27.167 l -32.614,5.813 z"
         style="fill:#abacae;fill-opacity:1;fill-rule:nonzero;stroke:none"
         id="path56" /><path
         d="m 64.082,332.656 c 0,-14.195 11.504,-25.707 25.691,-25.707 14.192,0 25.696,11.512 25.696,25.707 0,14.196 -11.504,25.707 -25.696,25.707 -14.187,0 -25.691,-11.511 -25.691,-25.707 z"
         style="fill:#fafafa;fill-opacity:1;fill-rule:nonzero;stroke:none"
         id="path58" /><path
         d="m 58.887,320.684 c 1.664,-4.297 4.207,-8.204 7.465,-11.461 l 23.421,23.433 z"
         style="fill:#abacae;fill-opacity:1;fill-rule:nonzero;stroke:none"
         id="path60" /><path
         d="m 77.891,345.254 c -5.469,-5.168 -6.981,-13.281 -3.735,-20.07 3.246,-6.793 10.508,-10.707 17.965,-9.688 7.453,1.02 13.399,6.738 14.703,14.152 l -17.051,3.008 z"
         style="fill:#abacae;fill-opacity:1;fill-rule:nonzero;stroke:none"
         id="path62" /><path
         d="m 81.16,332.656 c 0,-4.761 3.856,-8.621 8.613,-8.621 4.762,0 8.618,3.86 8.618,8.621 0,4.762 -3.856,8.621 -8.618,8.621 -4.757,0 -8.613,-3.859 -8.613,-8.621 z"
         style="fill:#fafafa;fill-opacity:1;fill-rule:nonzero;stroke:none"
         id="path64" /><path
         d="m 93.375,299.711 c 2.773,0.305 5.5,0.957 8.113,1.945 l -11.715,31 z"
         style="fill:#abacae;fill-opacity:1;fill-rule:nonzero;stroke:none"
         id="path66" /><g
         id="g68"
         transform="scale(0.99951,1)"><path
           d="m 105.11,344.008 h 2.552 v -6.496 c 0,-3.469 -2.333,-3.93 -4.166,-3.93 -1.755,0 -3.189,0.539 -4.166,1.199 l 0.797,2.09 c 0.958,-0.656 1.954,-1.016 3.15,-1.016 1.176,0 1.833,0.5 1.833,1.614 v 0.519 c -0.617,-0.3 -1.356,-0.476 -2.333,-0.476 -2.013,0 -4.045,1.015 -4.045,3.367 0,2.23 1.634,3.367 3.748,3.367 1.333,0 2.149,-0.496 2.63,-0.976 z m -2.134,-2.035 c -1.114,0 -1.712,-0.438 -1.712,-1.094 0,-0.836 0.876,-1.176 1.951,-1.176 0.699,0 1.356,0.117 1.895,0.34 v 1.094 c -0.5,0.457 -1.196,0.836 -2.134,0.836 z"
           style="fill:none;stroke:#fafafa;stroke-width:0.750181;stroke-linecap:butt;stroke-linejoin:miter;stroke-miterlimit:4;stroke-dasharray:none;stroke-opacity:1"
           id="path70" /></g><path
         d="m 105.059,344.008 h 2.55 v -6.496 c 0,-3.469 -2.332,-3.93 -4.164,-3.93 -1.754,0 -3.187,0.539 -4.164,1.199 l 0.797,2.09 c 0.957,-0.656 1.953,-1.016 3.149,-1.016 1.175,0 1.832,0.5 1.832,1.614 v 0.519 c -0.618,-0.3 -1.356,-0.476 -2.332,-0.476 -2.012,0 -4.043,1.015 -4.043,3.367 0,2.23 1.632,3.367 3.746,3.367 1.332,0 2.148,-0.496 2.629,-0.976 z m -2.133,-2.035 c -1.114,0 -1.711,-0.438 -1.711,-1.094 0,-0.836 0.875,-1.176 1.949,-1.176 0.699,0 1.356,0.117 1.895,0.34 v 1.094 c -0.5,0.457 -1.196,0.836 -2.133,0.836 z"
         style="fill:#000000;fill-opacity:1;fill-rule:nonzero;stroke:none"
         id="path72" /><g
         id="g74"
         transform="scale(0.99951,1)"><path
           d="m 114.157,344.246 c 1.036,0 1.775,-0.359 2.193,-0.976 v 0.738 h 2.591 v -14.391 l -2.591,1.176 v 3.766 c -0.457,-0.579 -1.157,-0.977 -2.173,-0.977 -2.431,0 -4.225,2.035 -4.225,5.324 0,3.446 1.653,5.34 4.205,5.34 z m 0.419,-2.492 c -1.333,0 -2.033,-1.094 -2.033,-2.848 0,-1.836 0.739,-2.832 2.033,-2.832 0.899,0 1.496,0.461 1.774,0.836 v 4.028 c -0.379,0.539 -0.915,0.816 -1.774,0.816 z"
           style="fill:none;stroke:#fafafa;stroke-width:0.750181;stroke-linecap:butt;stroke-linejoin:miter;stroke-miterlimit:4;stroke-dasharray:none;stroke-opacity:1"
           id="path76" /></g><path
         d="m 114.102,344.246 c 1.035,0 1.773,-0.359 2.191,-0.976 v 0.738 h 2.59 v -14.391 l -2.59,1.176 v 3.766 c -0.457,-0.579 -1.156,-0.977 -2.172,-0.977 -2.43,0 -4.223,2.035 -4.223,5.324 0,3.446 1.653,5.34 4.204,5.34 z m 0.418,-2.492 c -1.332,0 -2.032,-1.094 -2.032,-2.848 0,-1.836 0.739,-2.832 2.032,-2.832 0.898,0 1.496,0.461 1.773,0.836 v 4.028 c -0.379,0.539 -0.914,0.816 -1.773,0.816 z"
         style="fill:#000000;fill-opacity:1;fill-rule:nonzero;stroke:none"
         id="path78" /><g
         id="g80"
         transform="scale(0.99951,1)"><path
           d="m 127.711,344.008 h 2.552 v -6.496 c 0,-3.469 -2.333,-3.93 -4.166,-3.93 -1.755,0 -3.189,0.539 -4.166,1.199 l 0.797,2.09 c 0.958,-0.656 1.954,-1.016 3.15,-1.016 1.176,0 1.833,0.5 1.833,1.614 v 0.519 c -0.618,-0.3 -1.356,-0.476 -2.333,-0.476 -2.013,0 -4.045,1.015 -4.045,3.367 0,2.23 1.633,3.367 3.748,3.367 1.336,0 2.153,-0.496 2.63,-0.976 z m -2.134,-2.035 c -1.114,0 -1.712,-0.438 -1.712,-1.094 0,-0.836 0.876,-1.176 1.954,-1.176 0.696,0 1.353,0.117 1.892,0.34 v 1.094 c -0.496,0.457 -1.196,0.836 -2.134,0.836 z"
           style="fill:none;stroke:#fafafa;stroke-width:0.750181;stroke-linecap:butt;stroke-linejoin:miter;stroke-miterlimit:4;stroke-dasharray:none;stroke-opacity:1"
           id="path82" /></g><path
         d="m 127.648,344.008 h 2.551 v -6.496 c 0,-3.469 -2.332,-3.93 -4.164,-3.93 -1.754,0 -3.187,0.539 -4.164,1.199 l 0.797,2.09 c 0.957,-0.656 1.953,-1.016 3.148,-1.016 1.176,0 1.832,0.5 1.832,1.614 v 0.519 c -0.617,-0.3 -1.355,-0.476 -2.332,-0.476 -2.011,0 -4.043,1.015 -4.043,3.367 0,2.23 1.633,3.367 3.747,3.367 1.335,0 2.152,-0.496 2.628,-0.976 z m -2.132,-2.035 c -1.114,0 -1.711,-0.438 -1.711,-1.094 0,-0.836 0.875,-1.176 1.953,-1.176 0.695,0 1.351,0.117 1.89,0.34 v 1.094 c -0.496,0.457 -1.195,0.836 -2.132,0.836 z"
         style="fill:#000000;fill-opacity:1;fill-rule:nonzero;stroke:none"
         id="path84" /><g
         id="g86"
         transform="scale(0.99951,1)"><path
           d="m 133.053,344.008 h 2.592 v -5.68 c 0,-1.754 0.855,-2.191 1.754,-2.191 0.794,0 1.372,0.258 1.853,0.597 l 0.359,-2.375 c -0.578,-0.476 -1.219,-0.777 -2.075,-0.777 -1.016,0 -1.594,0.5 -1.891,1.137 v -0.895 h -2.592 z"
           style="fill:none;stroke:#fafafa;stroke-width:0.750181;stroke-linecap:butt;stroke-linejoin:miter;stroke-miterlimit:4;stroke-dasharray:none;stroke-opacity:1"
           id="path88" /></g><path
         d="m 132.988,344.008 h 2.59 v -5.68 c 0,-1.754 0.856,-2.191 1.754,-2.191 0.793,0 1.371,0.258 1.852,0.597 l 0.359,-2.375 c -0.578,-0.476 -1.219,-0.777 -2.074,-0.777 -1.016,0 -1.594,0.5 -1.891,1.137 v -0.895 h -2.59 z"
         style="fill:#000000;fill-opacity:1;fill-rule:nonzero;stroke:none"
         id="path90" /><g
         id="g92"
         transform="scale(0.99951,1)"><path
           d="m 91.177,344.008 h 2.592 v -5.68 c 0,-0.93 0.539,-2.191 1.754,-2.191 0.798,0 1.376,0.258 1.853,0.597 l 0.359,-2.375 c -0.578,-0.476 -1.215,-0.777 -2.071,-0.777 -3.115,0 -4.487,2.129 -4.487,5.277 z"
           style="fill:none;stroke:#fafafa;stroke-width:0.750181;stroke-linecap:butt;stroke-linejoin:miter;stroke-miterlimit:4;stroke-dasharray:none;stroke-opacity:1"
           id="path94" /></g><path
         d="m 91.133,344.008 h 2.59 v -5.68 c 0,-0.93 0.539,-2.191 1.754,-2.191 0.796,0 1.375,0.258 1.851,0.597 l 0.36,-2.375 c -0.579,-0.476 -1.215,-0.777 -2.071,-0.777 -3.113,0 -4.484,2.129 -4.484,5.277 z"
         style="fill:#000000;fill-opacity:1;fill-rule:nonzero;stroke:none"
         id="path96" /><g
         id="g98"
         transform="scale(0.99951,1)"><path
           d="m 88.266,367.336 v -5.164 h -2.517 v -13.324 l -5.886,10.07 v 3.254 H 76.932 L 85.89,347.344 H 80 l -8.953,14.828 v 5.164 h 8.816 v 4.945 h 5.886 v -4.945 z"
           style="fill:none;stroke:#fafafa;stroke-width:0.751365;stroke-linecap:butt;stroke-linejoin:miter;stroke-miterlimit:4;stroke-dasharray:none;stroke-opacity:1"
           id="path100" /></g><path
         d="m 88.223,367.336 v -5.164 h -2.516 v -13.324 l -5.883,10.07 v 3.254 h -2.929 l 8.953,-14.828 h -5.887 l -8.949,14.828 v 5.164 h 8.812 v 4.945 h 5.883 v -4.945 z"
         style="fill:#7a0000;fill-opacity:1;fill-rule:nonzero;stroke:none"
         id="path102" /><g
         id="g104"
         transform="scale(0.999511,1)"><path
           d="m 90.904,372.277 h 5.972 v -6.547 l 2.72,-3.671 5.878,10.218 h 6.503 l -8.911,-14.922 7.504,-9.984 h -6.503 l -7.082,9.875 h -0.109 v -9.875 h -5.972 z"
           style="fill:none;stroke:#fafafa;stroke-width:0.750179;stroke-linecap:butt;stroke-linejoin:miter;stroke-miterlimit:4;stroke-dasharray:none;stroke-opacity:1"
           id="path106" /></g><path
         d="m 90.859,372.277 h 5.969 v -6.547 l 2.719,-3.671 5.875,10.218 h 6.5 l -8.906,-14.922 7.5,-9.984 h -6.5 l -7.078,9.875 h -0.11 v -9.875 h -5.969 z"
         style="fill:#0e141f;fill-opacity:1;fill-rule:nonzero;stroke:none"
         id="path108" /><g
         id="g110"
         transform="scale(0.999511,1)"><path
           d="m 114.576,347.371 h 5.972 v 24.906 h -5.972 z"
           style="fill:none;stroke:#fafafa;stroke-width:0.750179;stroke-linecap:butt;stroke-linejoin:miter;stroke-miterlimit:4;stroke-dasharray:none;stroke-opacity:1"
           id="path112" /></g><path
         d="m 114.52,347.371 h 5.969 v 24.906 h -5.969 z"
         style="fill:#0e141f;fill-opacity:1;fill-rule:nonzero;stroke:none"
         id="path114" /><g
         id="g116"
         transform="scale(0.999511,1)"><path
           d="m 131.142,372.277 h 5.925 v -19.922 h 6.769 v -4.984 h -19.463 v 4.984 h 6.769 z"
           style="fill:none;stroke:#fafafa;stroke-width:0.750179;stroke-linecap:butt;stroke-linejoin:miter;stroke-miterlimit:4;stroke-dasharray:none;stroke-opacity:1"
           id="path118" /></g><path
         d="M 131.078,372.277 H 137 v -19.922 h 6.766 v -4.984 h -19.454 v 4.984 h 6.766 z"
         style="fill:#0e141f;fill-opacity:1;fill-rule:nonzero;stroke:none"
         id="path120" /><g
         id="g122"
         transform="scale(0.99951,1)"><path
           d="m 105.11,344.008 h 2.552 v -6.496 c 0,-3.469 -2.333,-3.93 -4.166,-3.93 -1.755,0 -3.189,0.539 -4.166,1.199 l 0.797,2.09 c 0.958,-0.656 1.954,-1.016 3.15,-1.016 1.176,0 1.833,0.5 1.833,1.614 v 0.519 c -0.617,-0.3 -1.356,-0.476 -2.333,-0.476 -2.013,0 -4.045,1.015 -4.045,3.367 0,2.23 1.634,3.367 3.748,3.367 1.333,0 2.149,-0.496 2.63,-0.976 z m -2.134,-2.035 c -1.114,0 -1.712,-0.438 -1.712,-1.094 0,-0.836 0.876,-1.176 1.951,-1.176 0.699,0 1.356,0.117 1.895,0.34 v 1.094 c -0.5,0.457 -1.196,0.836 -2.134,0.836 z"
           style="fill:none;stroke:#fafafa;stroke-width:0.750181;stroke-linecap:butt;stroke-linejoin:miter;stroke-miterlimit:4;stroke-dasharray:none;stroke-opacity:1"
           id="path124" /></g><path
         d="m 105.059,344.008 h 2.55 v -6.496 c 0,-3.469 -2.332,-3.93 -4.164,-3.93 -1.754,0 -3.187,0.539 -4.164,1.199 l 0.797,2.09 c 0.957,-0.656 1.953,-1.016 3.149,-1.016 1.175,0 1.832,0.5 1.832,1.614 v 0.519 c -0.618,-0.3 -1.356,-0.476 -2.332,-0.476 -2.012,0 -4.043,1.015 -4.043,3.367 0,2.23 1.632,3.367 3.746,3.367 1.332,0 2.148,-0.496 2.629,-0.976 z m -2.133,-2.035 c -1.114,0 -1.711,-0.438 -1.711,-1.094 0,-0.836 0.875,-1.176 1.949,-1.176 0.699,0 1.356,0.117 1.895,0.34 v 1.094 c -0.5,0.457 -1.196,0.836 -2.133,0.836 z"
         style="fill:#000000;fill-opacity:1;fill-rule:nonzero;stroke:none"
         id="path126" /><g
         id="g128"
         transform="scale(0.99951,1)"><path
           d="m 114.157,344.246 c 1.036,0 1.775,-0.359 2.193,-0.976 v 0.738 h 2.591 v -14.391 l -2.591,1.176 v 3.766 c -0.457,-0.579 -1.157,-0.977 -2.173,-0.977 -2.431,0 -4.225,2.035 -4.225,5.324 0,3.446 1.653,5.34 4.205,5.34 z m 0.419,-2.492 c -1.333,0 -2.033,-1.094 -2.033,-2.848 0,-1.836 0.739,-2.832 2.033,-2.832 0.899,0 1.496,0.461 1.774,0.836 v 4.028 c -0.379,0.539 -0.915,0.816 -1.774,0.816 z"
           style="fill:none;stroke:#fafafa;stroke-width:0.750181;stroke-linecap:butt;stroke-linejoin:miter;stroke-miterlimit:4;stroke-dasharray:none;stroke-opacity:1"
           id="path130" /></g><path
         d="m 114.102,344.246 c 1.035,0 1.773,-0.359 2.191,-0.976 v 0.738 h 2.59 v -14.391 l -2.59,1.176 v 3.766 c -0.457,-0.579 -1.156,-0.977 -2.172,-0.977 -2.43,0 -4.223,2.035 -4.223,5.324 0,3.446 1.653,5.34 4.204,5.34 z m 0.418,-2.492 c -1.332,0 -2.032,-1.094 -2.032,-2.848 0,-1.836 0.739,-2.832 2.032,-2.832 0.898,0 1.496,0.461 1.773,0.836 v 4.028 c -0.379,0.539 -0.914,0.816 -1.773,0.816 z"
         style="fill:#000000;fill-opacity:1;fill-rule:nonzero;stroke:none"
         id="path132" /><g
         id="g134"
         transform="scale(0.99951,1)"><path
           d="m 127.711,344.008 h 2.552 v -6.496 c 0,-3.469 -2.333,-3.93 -4.166,-3.93 -1.755,0 -3.189,0.539 -4.166,1.199 l 0.797,2.09 c 0.958,-0.656 1.954,-1.016 3.15,-1.016 1.176,0 1.833,0.5 1.833,1.614 v 0.519 c -0.618,-0.3 -1.356,-0.476 -2.333,-0.476 -2.013,0 -4.045,1.015 -4.045,3.367 0,2.23 1.633,3.367 3.748,3.367 1.336,0 2.153,-0.496 2.63,-0.976 z m -2.134,-2.035 c -1.114,0 -1.712,-0.438 -1.712,-1.094 0,-0.836 0.876,-1.176 1.954,-1.176 0.696,0 1.353,0.117 1.892,0.34 v 1.094 c -0.496,0.457 -1.196,0.836 -2.134,0.836 z"
           style="fill:none;stroke:#fafafa;stroke-width:0.750181;stroke-linecap:butt;stroke-linejoin:miter;stroke-miterlimit:4;stroke-dasharray:none;stroke-opacity:1"
           id="path136" /></g><path
         d="m 127.648,344.008 h 2.551 v -6.496 c 0,-3.469 -2.332,-3.93 -4.164,-3.93 -1.754,0 -3.187,0.539 -4.164,1.199 l 0.797,2.09 c 0.957,-0.656 1.953,-1.016 3.148,-1.016 1.176,0 1.832,0.5 1.832,1.614 v 0.519 c -0.617,-0.3 -1.355,-0.476 -2.332,-0.476 -2.011,0 -4.043,1.015 -4.043,3.367 0,2.23 1.633,3.367 3.747,3.367 1.335,0 2.152,-0.496 2.628,-0.976 z m -2.132,-2.035 c -1.114,0 -1.711,-0.438 -1.711,-1.094 0,-0.836 0.875,-1.176 1.953,-1.176 0.695,0 1.351,0.117 1.89,0.34 v 1.094 c -0.496,0.457 -1.195,0.836 -2.132,0.836 z"
         style="fill:#000000;fill-opacity:1;fill-rule:nonzero;stroke:none"
         id="path138" /><g
         id="g140"
         transform="scale(0.99951,1)"><path
           d="m 133.053,344.008 h 2.592 v -5.68 c 0,-1.754 0.855,-2.191 1.754,-2.191 0.794,0 1.372,0.258 1.853,0.597 l 0.359,-2.375 c -0.578,-0.476 -1.219,-0.777 -2.075,-0.777 -1.016,0 -1.594,0.5 -1.891,1.137 v -0.895 h -2.592 z"
           style="fill:none;stroke:#fafafa;stroke-width:0.750181;stroke-linecap:butt;stroke-linejoin:miter;stroke-miterlimit:4;stroke-dasharray:none;stroke-opacity:1"
           id="path142" /></g><path
         d="m 132.988,344.008 h 2.59 v -5.68 c 0,-1.754 0.856,-2.191 1.754,-2.191 0.793,0 1.371,0.258 1.852,0.597 l 0.359,-2.375 c -0.578,-0.476 -1.219,-0.777 -2.074,-0.777 -1.016,0 -1.594,0.5 -1.891,1.137 v -0.895 h -2.59 z"
         style="fill:#000000;fill-opacity:1;fill-rule:nonzero;stroke:none"
         id="path144" /><g
         id="g146"
         transform="scale(0.99951,1)"><path
           d="m 91.177,344.008 h 2.592 v -5.68 c 0,-0.93 0.539,-2.191 1.754,-2.191 0.798,0 1.376,0.258 1.853,0.597 l 0.359,-2.375 c -0.578,-0.476 -1.215,-0.777 -2.071,-0.777 -3.115,0 -4.487,2.129 -4.487,5.277 z"
           style="fill:none;stroke:#fafafa;stroke-width:0.750181;stroke-linecap:butt;stroke-linejoin:miter;stroke-miterlimit:4;stroke-dasharray:none;stroke-opacity:1"
           id="path148" /></g><path
         d="m 91.133,344.008 h 2.59 v -5.68 c 0,-0.93 0.539,-2.191 1.754,-2.191 0.796,0 1.375,0.258 1.851,0.597 l 0.36,-2.375 c -0.579,-0.476 -1.215,-0.777 -2.071,-0.777 -3.113,0 -4.484,2.129 -4.484,5.277 z"
         style="fill:#000000;fill-opacity:1;fill-rule:nonzero;stroke:none"
         id="path150" /><g
         id="g152"
         transform="scale(0.99951,1)"><path
           d="m 88.266,367.336 v -5.164 h -2.517 v -13.324 l -5.886,10.07 v 3.254 H 76.932 L 85.89,347.344 H 80 l -8.953,14.828 v 5.164 h 8.816 v 4.945 h 5.886 v -4.945 z"
           style="fill:none;stroke:#fafafa;stroke-width:0.751365;stroke-linecap:butt;stroke-linejoin:miter;stroke-miterlimit:4;stroke-dasharray:none;stroke-opacity:1"
           id="path154" /></g><g
         id="g158"
         transform="scale(0.999511,1)"><path
           d="m 90.904,372.277 h 5.972 v -6.547 l 2.72,-3.671 5.878,10.218 h 6.503 l -8.911,-14.922 7.504,-9.984 h -6.503 l -7.082,9.875 h -0.109 v -9.875 h -5.972 z"
           style="fill:none;stroke:#fafafa;stroke-width:0.750179;stroke-linecap:butt;stroke-linejoin:miter;stroke-miterlimit:4;stroke-dasharray:none;stroke-opacity:1"
           id="path160" /></g><path
         d="m 90.859,372.277 h 5.969 v -6.547 l 2.719,-3.671 5.875,10.218 h 6.5 l -8.906,-14.922 7.5,-9.984 h -6.5 l -7.078,9.875 h -0.11 v -9.875 h -5.969 z"
         style="fill:#0e141f;fill-opacity:1;fill-rule:nonzero;stroke:none"
         id="path162" /><g
         id="g164"
         transform="scale(0.999511,1)"><path
           d="m 114.576,347.371 h 5.972 v 24.906 h -5.972 z"
           style="fill:none;stroke:#fafafa;stroke-width:0.750179;stroke-linecap:butt;stroke-linejoin:miter;stroke-miterlimit:4;stroke-dasharray:none;stroke-opacity:1"
           id="path166" /></g><path
         d="m 114.52,347.371 h 5.969 v 24.906 h -5.969 z"
         style="fill:#0e141f;fill-opacity:1;fill-rule:nonzero;stroke:none"
         id="path168" /><g
         id="g170"
         transform="scale(0.999511,1)"><path
           d="m 131.142,372.277 h 5.925 v -19.922 h 6.769 v -4.984 h -19.463 v 4.984 h 6.769 z"
           style="fill:none;stroke:#fafafa;stroke-width:0.750179;stroke-linecap:butt;stroke-linejoin:miter;stroke-miterlimit:4;stroke-dasharray:none;stroke-opacity:1"
           id="path172" /></g><path
         d="M 131.078,372.277 H 137 v -19.922 h 6.766 v -4.984 h -19.454 v 4.984 h 6.766 z"
         style="fill:#0e141f;fill-opacity:1;fill-rule:nonzero;stroke:none"
         id="path174" /><path
         d="m 215.141,58.832 -4.067,16.395 c 10.578,2.644 20.024,8.636 26.926,17.078 L 251.082,81.582 C 241.863,70.328 229.258,62.348 215.141,58.832 Z m 44.82,36.82 -15.305,7.196 c 1.387,2.953 2.426,6.035 3.219,9.179 l -16.242,4.098 c 0.679,2.703 1.027,5.477 1.027,8.266 h 16.801 c -0.004,15.277 -6.902,29.738 -18.773,39.355 -39.821,-48.867 -37.793,-52.234 -10.481,6.543 -6.707,3.133 -14.016,4.758 -21.418,4.762 -23.199,0 -43.441,-15.754 -49.129,-38.246 l -16.351,4.121 c 7.574,30.004 34.558,51.023 65.503,51.027 9.856,0 19.59,-2.156 28.524,-6.312 5.09,-2.368 9.719,-5.262 13.984,-8.739 15.848,-12.828 25.055,-32.125 25.055,-52.511 -0.066,-5.707 -0.742,-11.274 -2.117,-16.563 -1.055,-4.187 -2.449,-8.242 -4.297,-12.176 z"
         style="fill:#d4d4d4;fill-opacity:1;fill-rule:nonzero;stroke:none"
         id="path176" /><path
         d="m 146.52,81.461 c -3.508,4.312 -6.536,9.043 -8.872,14.125 l 61.211,28.801 z"
         style="fill:#0e9a83;fill-opacity:1;fill-rule:evenodd;stroke:none"
         id="path178" /><path
         d="M 198.859,124.387 170.316,62.953 c -5.089,2.367 -9.765,5.289 -14.031,8.77 z"
         style="fill:#0e9a83;fill-opacity:1;fill-rule:evenodd;stroke:none"
         id="path180" /><path
         d="m 198.859,124.387 0.071,-67.696 h -0.551 c -5.434,0 -10.727,0.7 -15.817,1.95 z"
         style="fill:#0e9a83;fill-opacity:1;fill-rule:evenodd;stroke:none"
         id="path182" /><path
         d="m 133.246,107.828 c -1.375,5.289 -2.062,10.856 -2.133,16.563 l 67.746,-0.004 z"
         style="fill:#0e9a83;fill-opacity:1;fill-rule:evenodd;stroke:none"
         id="path184" /><path
         d="m 207.02,91.555 -4.079,16.429 c 7.52,1.891 12.789,8.653 12.793,16.407 0,9.343 -7.578,16.921 -16.925,16.921 -7.743,-0.003 -14.493,-5.265 -16.395,-12.769 l -16.418,4.141 c 3.801,15.027 17.316,25.55 32.813,25.554 18.695,0 33.847,-15.156 33.847,-33.847 0,-15.532 -10.57,-29.071 -25.636,-32.836 z"
         style="fill:#d4d4d4;fill-opacity:1;fill-rule:nonzero;stroke:none"
         id="path186" /><path
         d="m 250.375,80.641 c 23.539,27.824 20.797,69.3 -6.203,93.781 -26.996,24.484 -68.543,23.168 -93.938,-2.977 l 48.512,-47.121 z"
         style="fill:#fefefe;fill-opacity:1;fill-rule:nonzero;stroke:none"
         id="path188" /><path
         d="m 249.766,125.727 h 4.207 V 115.02 c 0,-5.715 -3.844,-6.473 -6.868,-6.473 -2.89,0 -5.253,0.887 -6.867,1.973 l 1.317,3.449 c 1.574,-1.086 3.218,-1.676 5.191,-1.676 1.938,0 3.02,0.82 3.02,2.66 v 0.856 c -1.016,-0.493 -2.235,-0.789 -3.844,-0.789 -3.317,0 -6.668,1.675 -6.668,5.55 0,3.68 2.695,5.551 6.176,5.551 2.203,0 3.547,-0.82 4.336,-1.609 z m -3.516,-3.348 c -1.84,0 -2.824,-0.723 -2.824,-1.809 0,-1.379 1.445,-1.937 3.219,-1.937 1.152,0 2.234,0.195 3.121,0.558 v 1.805 c -0.821,0.758 -1.969,1.383 -3.516,1.383 z"
         style="fill:#273445;fill-opacity:1;fill-rule:nonzero;stroke:none"
         id="path190" /><path
         d="m 264.68,126.121 c 1.707,0 2.925,-0.59 3.613,-1.609 v 1.215 h 4.269 v -23.715 l -4.269,1.937 v 6.207 c -0.754,-0.953 -1.906,-1.609 -3.578,-1.609 -4.008,0 -6.965,3.351 -6.965,8.773 0,5.68 2.727,8.801 6.93,8.801 z m 0.691,-4.105 c -2.203,0 -3.351,-1.805 -3.351,-4.696 0,-3.023 1.214,-4.668 3.351,-4.668 1.477,0 2.461,0.758 2.922,1.383 v 6.633 c -0.621,0.887 -1.512,1.348 -2.922,1.348 z"
         style="fill:#273445;fill-opacity:1;fill-rule:nonzero;stroke:none"
         id="path192" /><path
         d="m 287.02,125.727 h 4.203 V 115.02 c 0,-5.715 -3.844,-6.473 -6.868,-6.473 -2.89,0 -5.253,0.887 -6.863,1.973 l 1.313,3.449 c 1.578,-1.086 3.218,-1.676 5.191,-1.676 1.938,0 3.024,0.82 3.024,2.66 v 0.856 c -1.02,-0.493 -2.235,-0.789 -3.844,-0.789 -3.321,0 -6.668,1.675 -6.668,5.55 0,3.68 2.691,5.551 6.176,5.551 2.199,0 3.546,-0.82 4.336,-1.609 z m -3.516,-3.348 c -1.84,0 -2.824,-0.723 -2.824,-1.809 0,-1.379 1.445,-1.937 3.218,-1.937 1.149,0 2.235,0.195 3.122,0.558 v 1.805 c -0.825,0.758 -1.973,1.383 -3.516,1.383 z"
         style="fill:#273445;fill-opacity:1;fill-rule:nonzero;stroke:none"
         id="path194" /><path
         d="m 295.82,125.727 h 4.274 v -9.36 c 0,-2.89 1.41,-3.613 2.89,-3.613 1.313,0 2.266,0.426 3.055,0.984 l 0.59,-3.91 c -0.953,-0.789 -2.004,-1.281 -3.414,-1.281 -1.676,0 -2.629,0.82 -3.121,1.875 v -1.481 h -4.274 z"
         style="fill:#273445;fill-opacity:1;fill-rule:nonzero;stroke:none"
         id="path196" /><path
         d="m 226.805,125.727 h 4.269 v -9.36 c 0,-1.535 0.891,-3.613 2.891,-3.613 1.316,0 2.265,0.426 3.055,0.984 l 0.593,-3.91 c -0.953,-0.789 -2.004,-1.281 -3.418,-1.281 -5.129,0 -7.39,3.508 -7.39,8.695 z"
         style="fill:#273445;fill-opacity:1;fill-rule:nonzero;stroke:none"
         id="path198" /><path
         d="m 211.465,135.602 h 13.113 v 44.566 h -13.113 z"
         style="fill:#000000;fill-opacity:1;fill-rule:nonzero;stroke:none"
         id="path200" /><path
         d="m 234.047,135.602 -20.609,25.738 8.472,9.758 28.086,-35.223 -0.238,-0.273 z"
         style="fill:#000000;fill-opacity:1;fill-rule:nonzero;stroke:none"
         id="path202" /><path
         d="m 234.047,180.168 -20.609,-25.742 8.472,-9.754 28.086,35.223 -0.238,0.273 z"
         style="fill:#000000;fill-opacity:1;fill-rule:nonzero;stroke:none"
         id="path204" /><path
         d="m 254.406,135.602 h 13.113 v 44.566 h -13.113 z"
         style="fill:#000000;fill-opacity:1;fill-rule:nonzero;stroke:none"
         id="path206" /><path
         d="m 282.836,135.602 h 13.113 v 44.566 h -13.113 z"
         style="fill:#000000;fill-opacity:1;fill-rule:nonzero;stroke:none"
         id="path208" /><path
         d="m 273.066,135.602 h 32.652 v 13.113 h -32.652 z"
         style="fill:#000000;fill-opacity:1;fill-rule:nonzero;stroke:none"
         id="path210" /><path
         d="m 193.891,150.16 -10.551,15.266 v 8.828 h 10.551 v 5.914 h 8.828 v -5.914 h 2.695 v -8.828 h -2.695 V 150.16 Z"
         style="fill:#273445;fill-opacity:1;fill-rule:nonzero;stroke:none"
         id="path212" /><path
         d="m 195.465,160.27 -3.563,5.156 h 3.563 z"
         style="fill:#fafafa;fill-opacity:1;fill-rule:nonzero;stroke:none"
         id="path214" /><path
         d="m 140.43,443.539 7.406,13.297 h 6.594 l -10.36,-17.891 9.578,-12 h -6.796 l -10.36,13.953 v -13.953 h -5.672 v 29.891 h 5.672 v -8.359 z"
         style="fill:#0e141f;fill-opacity:1;fill-rule:nonzero;stroke:none"
         id="path216" /><path
         d="m 157.508,426.945 h 5.688 v 29.891 h -5.688 z"
         style="fill:#0e141f;fill-opacity:1;fill-rule:nonzero;stroke:none"
         id="path218" /><path
         d="m 187.238,431.883 v -4.938 H 166.27 v 4.938 h 7.625 v 24.953 h 5.718 v -24.953 z"
         style="fill:#0e141f;fill-opacity:1;fill-rule:nonzero;stroke:none"
         id="path220" /><path
         d="m 134.508,418.828 2.578,5.5 h 2.969 l -2.953,-5.89 c 0.765,-0.282 1.359,-0.735 1.781,-1.36 0.406,-0.609 0.625,-1.359 0.625,-2.266 0,-1.234 -0.391,-2.218 -1.188,-2.953 -0.781,-0.718 -1.843,-1.093 -3.156,-1.093 h -5.156 v 13.562 h 2.578 v -5.5 z m -1.922,-2.14 V 413 h 2.437 c 0.594,0 1.047,0.188 1.391,0.5 0.344,0.328 0.516,0.766 0.516,1.312 0,0.61 -0.172,1.079 -0.516,1.391 -0.328,0.328 -0.797,0.485 -1.391,0.485 z"
         style="fill:#000000;fill-opacity:1;fill-rule:nonzero;stroke:none"
         id="path222" /><path
         d="m 148.926,421.688 0.812,2.64 h 2.735 l -4.828,-13.562 h -2.11 l -4.812,13.562 h 2.718 l 0.813,-2.64 z m -0.688,-2.141 h -3.281 l 1.625,-5.203 z"
         style="fill:#000000;fill-opacity:1;fill-rule:nonzero;stroke:none"
         id="path224" /><path
         d="m 153.707,410.766 v 13.562 h 4.703 c 1.516,0 2.703,-0.406 3.61,-1.266 0.89,-0.843 1.343,-2.218 1.343,-4.14 v -2.766 c 0,-1.906 -0.453,-3.281 -1.312,-4.14 -0.875,-0.813 -2.063,-1.25 -3.563,-1.25 z m 4.766,11.328 h -2.188 V 413 h 2.188 c 0.781,0 1.343,0.281 1.75,0.797 0.375,0.5 0.562,1.359 0.562,2.484 v 2.625 c 0,1.094 -0.187,1.906 -0.594,2.422 -0.39,0.5 -0.953,0.766 -1.718,0.766 z"
         style="fill:#000000;fill-opacity:1;fill-rule:nonzero;stroke:none"
         id="path226" /><path
         d="m 172.035,421.688 0.813,2.64 h 2.734 l -4.828,-13.562 h -2.109 l -4.813,13.562 h 2.719 l 0.812,-2.64 z m -0.687,-2.141 h -3.282 l 1.625,-5.203 z"
         style="fill:#000000;fill-opacity:1;fill-rule:nonzero;stroke:none"
         id="path228" /><path
         d="m 181.316,418.828 2.579,5.5 h 2.968 l -2.953,-5.89 c 0.766,-0.282 1.36,-0.735 1.781,-1.36 0.407,-0.609 0.625,-1.359 0.625,-2.266 0,-1.234 -0.39,-2.218 -1.187,-2.953 -0.781,-0.718 -1.844,-1.093 -3.156,-1.093 h -5.157 v 13.562 h 2.579 v -5.5 z m -1.921,-2.14 V 413 h 2.437 c 0.594,0 1.047,0.188 1.391,0.5 0.343,0.328 0.515,0.766 0.515,1.312 0,0.61 -0.172,1.079 -0.515,1.391 -0.328,0.328 -0.797,0.485 -1.391,0.485 z"
         style="fill:#000000;fill-opacity:1;fill-rule:nonzero;stroke:none"
         id="path230" /><path
         d="m 90.293,413.898 c -3.344,0 -6.102,1.504 -7.93,3.45 -1.828,1.949 -2.949,4.222 -4.008,6.269 -1.058,2.043 -2.058,3.856 -3.117,4.977 -1.062,1.121 -1.968,1.672 -3.847,1.672 h -6.723 v 5.668 h 6.723 c 3.355,0 6.125,-1.496 7.964,-3.442 1.844,-1.949 2.973,-4.226 4.032,-6.273 1.058,-2.047 2.054,-3.867 3.105,-4.989 1.055,-1.121 1.946,-1.66 3.801,-1.66 h 7.031 v -5.672 z"
         style="fill:#000000;fill-opacity:1;fill-rule:nonzero;stroke:none"
         id="path232" /><g
         id="g234"><path
           d="m 64.668,416.734 h 7.027 c 10.391,0 8.434,16.364 18.903,16.364 h 6.726"
           style="fill:none;stroke:#ffffff;stroke-width:4.8189;stroke-linecap:butt;stroke-linejoin:miter;stroke-miterlimit:4;stroke-dasharray:none;stroke-opacity:0.997101"
           id="path236" /></g><path
         d="m 64.668,416.734 h 7.027 c 10.391,0 8.434,16.364 18.903,16.364 h 6.726"
         style="fill:#fafafa;fill-opacity:1;fill-rule:nonzero;stroke:none"
         id="path238" /><g
         id="g240"><path
           d="m 64.668,413.898 v 5.672 h 7.027 c 1.852,0 2.743,0.539 3.797,1.66 1.055,1.122 2.047,2.942 3.106,4.989 1.058,2.047 2.191,4.324 4.031,6.273 1.84,1.946 4.609,3.442 7.969,3.442 h 6.726 v -5.668 h -6.726 c -1.883,0 -2.789,-0.551 -3.852,-1.672 -1.058,-1.121 -2.051,-2.934 -3.109,-4.977 -1.059,-2.047 -2.18,-4.32 -4.008,-6.269 -1.828,-1.946 -4.594,-3.45 -7.934,-3.45 z"
           style="fill:none;stroke:#ffffff;stroke-width:4.8189;stroke-linecap:butt;stroke-linejoin:miter;stroke-miterlimit:4;stroke-dasharray:none;stroke-opacity:0.997101"
           id="path242" /></g><path
         d="m 64.668,413.898 v 5.672 h 7.027 c 1.852,0 2.743,0.539 3.797,1.66 1.055,1.122 2.047,2.942 3.106,4.989 1.058,2.047 2.191,4.324 4.031,6.273 1.84,1.946 4.609,3.442 7.969,3.442 h 6.726 v -5.668 h -6.726 c -1.883,0 -2.789,-0.551 -3.852,-1.672 -1.058,-1.121 -2.051,-2.934 -3.109,-4.977 -1.059,-2.047 -2.18,-4.32 -4.008,-6.269 -1.828,-1.946 -4.594,-3.45 -7.934,-3.45 z"
         style="fill:#000000;fill-opacity:1;fill-rule:nonzero;stroke:none"
         id="path244" /><path
         d="m 128.797,424.918 c 0,9.82 -7.965,17.785 -17.785,17.785 -9.824,0 -17.789,-7.965 -17.789,-17.785 0,-9.824 7.965,-17.789 17.789,-17.789 9.82,0 17.785,7.965 17.785,17.789 z"
         style="fill:#ffffff;fill-opacity:1;fill-rule:nonzero;stroke:none"
         id="path246" /><path
         d="m 113.695,410.699 c 6.715,1.266 11.625,7.059 11.782,13.887 0.156,6.832 -4.489,12.84 -11.137,14.414 l -3.328,-14.082 z"
         style="fill:#7a0000;fill-opacity:1;fill-rule:nonzero;stroke:none"
         id="path248" /><path
         d="m 109.395,439.297 c -7.262,-0.817 -12.778,-6.918 -12.856,-14.227 -0.078,-7.304 5.305,-13.523 12.547,-14.496 l 1.926,14.344 z"
         style="fill:#7a0000;fill-opacity:1;fill-rule:nonzero;stroke:none"
         id="path250" /><path
         d="m 122.234,424.918 c 0,6.199 -5.023,11.223 -11.222,11.223 -6.2,0 -11.227,-5.024 -11.227,-11.223 0,-6.199 5.027,-11.227 11.227,-11.227 6.199,0 11.222,5.028 11.222,11.227 z"
         style="fill:#fafafa;fill-opacity:1;fill-rule:nonzero;stroke:none"
         id="path252" /><path
         d="m 97.414,419.969 c 0.723,-1.989 1.871,-3.789 3.363,-5.285 l 10.235,10.234 z"
         style="fill:#7a0000;fill-opacity:1;fill-rule:nonzero;stroke:none"
         id="path254" /><path
         d="m 118.574,424.918 c 0,4.176 -3.386,7.562 -7.562,7.562 -4.18,0 -7.567,-3.386 -7.567,-7.562 0,-4.18 3.387,-7.563 7.567,-7.563 4.176,0 7.562,3.383 7.562,7.563 z"
         style="fill:#7a0000;fill-opacity:1;fill-rule:nonzero;stroke:none"
         id="path256" /><path
         d="m 114.773,424.918 c 0,2.078 -1.683,3.762 -3.761,3.762 -2.082,0 -3.766,-1.684 -3.766,-3.762 0,-2.078 1.684,-3.766 3.766,-3.766 2.078,0 3.761,1.688 3.761,3.766 z"
         style="fill:#fafafa;fill-opacity:1;fill-rule:nonzero;stroke:none"
         id="path258" /><path
         d="m 109.438,439.301 c -1.211,-0.133 -2.403,-0.418 -3.543,-0.848 l 5.117,-13.535 z"
         style="fill:#7a0000;fill-opacity:1;fill-rule:nonzero;stroke:none"
         id="path260" /><path
         d="m 67.848,421.977 -9.157,-5.286 9.157,-5.285 z"
         style="fill:#0e141f;fill-opacity:1;fill-rule:nonzero;stroke:none"
         id="path262" /><path
         d="m 67.848,438.453 -9.157,-5.289 9.157,-5.285 z"
         style="fill:#0e141f;fill-opacity:1;fill-rule:nonzero;stroke:none"
         id="path264" /><path
         d="m 129.148,452.754 v -4.211 h -2.046 v -10.852 l -4.797,8.204 v 2.648 h -2.387 l 7.297,-12.074 h -4.797 l -7.293,12.074 v 4.211 h 7.18 v 4.023 h 4.797 v -4.023 z"
         style="fill:#95a3ab;fill-opacity:1;fill-rule:nonzero;stroke:none"
         id="path266" /><path
         d="m 269.957,445.414 c -3.57,-10.18 -1.145,-21.5 6.285,-29.324 l 20.86,19.808 z"
         style="fill:#abacae;fill-opacity:1;fill-rule:nonzero;stroke:none"
         id="path268" /><path
         d="m 278.582,413.887 c 9.856,-8.293 24.02,-9.024 34.676,-1.793 10.656,7.234 15.207,20.668 11.137,32.886 l -27.293,-9.082 z"
         style="fill:#abacae;fill-opacity:1;fill-rule:nonzero;stroke:none"
         id="path270" /><path
         d="m 277.449,425.254 c 5.883,-10.828 19.43,-14.84 30.258,-8.957 10.828,5.883 14.84,19.43 8.957,30.258 -5.883,10.828 -19.43,14.836 -30.258,8.957 -10.828,-5.883 -14.836,-19.43 -8.957,-30.258 z"
         style="fill:#fafafa;fill-opacity:1;fill-rule:nonzero;stroke:none"
         id="path272" /><path
         d="m 278.449,413.969 c 3.051,-2.59 6.606,-4.512 10.446,-5.649 l 8.164,27.582 z"
         style="fill:#abacae;fill-opacity:1;fill-rule:nonzero;stroke:none"
         id="path274" /><path
         d="m 282.77,440.586 c -2.036,-6.211 0.175,-13.024 5.464,-16.856 5.293,-3.835 12.457,-3.812 17.723,0.055 5.266,3.867 7.43,10.695 5.355,16.891 l -14.253,-4.774 z"
         style="fill:#abacae;fill-opacity:1;fill-rule:nonzero;stroke:none"
         id="path276" /><path
         d="m 290.48,432.332 c 1.973,-3.633 6.516,-4.977 10.149,-3.004 3.633,1.973 4.976,6.516 3.004,10.149 -1.973,3.628 -6.516,4.976 -10.149,3.003 -3.629,-1.972 -4.976,-6.515 -3.004,-10.148 z"
         style="fill:#fafafa;fill-opacity:1;fill-rule:nonzero;stroke:none"
         id="path278" /><path
         d="m 313.453,412.27 c 1.992,1.382 3.801,3.007 5.387,4.843 l -21.781,18.789 z"
         style="fill:#abacae;fill-opacity:1;fill-rule:nonzero;stroke:none"
         id="path280" /><path
         d="m 273.16,444.254 2.578,5.5 h 2.969 l -2.953,-5.891 c 0.766,-0.281 1.359,-0.734 1.781,-1.359 0.406,-0.609 0.625,-1.359 0.625,-2.266 0,-1.234 -0.39,-2.218 -1.187,-2.953 -0.782,-0.719 -1.844,-1.094 -3.157,-1.094 h -5.156 v 13.563 h 2.578 v -5.5 z m -1.922,-2.141 v -3.687 h 2.438 c 0.594,0 1.047,0.187 1.39,0.5 0.344,0.328 0.516,0.765 0.516,1.312 0,0.61 -0.172,1.078 -0.516,1.391 -0.328,0.328 -0.796,0.484 -1.39,0.484 z"
         style="fill:#000000;fill-opacity:1;fill-rule:nonzero;stroke:none"
         id="path282" /><path
         d="m 287.578,447.113 0.813,2.641 h 2.734 l -4.828,-13.563 h -2.109 l -4.813,13.563 h 2.719 l 0.812,-2.641 z m -0.687,-2.14 h -3.282 l 1.625,-5.203 z"
         style="fill:#000000;fill-opacity:1;fill-rule:nonzero;stroke:none"
         id="path284" /><path
         d="m 292.359,436.191 v 13.563 h 4.703 c 1.516,0 2.704,-0.406 3.61,-1.266 0.89,-0.843 1.344,-2.218 1.344,-4.14 v -2.766 c 0,-1.906 -0.454,-3.281 -1.313,-4.141 -0.875,-0.812 -2.062,-1.25 -3.562,-1.25 z m 4.766,11.329 h -2.187 v -9.094 h 2.187 c 0.781,0 1.344,0.281 1.75,0.797 0.375,0.5 0.563,1.359 0.563,2.484 v 2.625 c 0,1.094 -0.188,1.906 -0.594,2.422 -0.391,0.5 -0.953,0.766 -1.719,0.766 z"
         style="fill:#000000;fill-opacity:1;fill-rule:nonzero;stroke:none"
         id="path286" /><path
         d="m 310.684,447.113 0.812,2.641 h 2.734 l -4.828,-13.563 h -2.109 l -4.813,13.563 h 2.719 l 0.813,-2.641 z m -0.688,-2.14 h -3.281 l 1.625,-5.203 z"
         style="fill:#000000;fill-opacity:1;fill-rule:nonzero;stroke:none"
         id="path288" /><path
         d="m 319.969,444.254 2.578,5.5 h 2.969 l -2.954,-5.891 c 0.766,-0.281 1.36,-0.734 1.782,-1.359 0.406,-0.609 0.625,-1.359 0.625,-2.266 0,-1.234 -0.391,-2.218 -1.188,-2.953 -0.781,-0.719 -1.843,-1.094 -3.156,-1.094 h -5.156 v 13.563 h 2.578 v -5.5 z m -1.922,-2.141 v -3.687 h 2.437 c 0.594,0 1.047,0.187 1.391,0.5 0.344,0.328 0.516,0.765 0.516,1.312 0,0.61 -0.172,1.078 -0.516,1.391 -0.328,0.328 -0.797,0.484 -1.391,0.484 z"
         style="fill:#000000;fill-opacity:1;fill-rule:nonzero;stroke:none"
         id="path290" /><path
         d="m 283.223,467.453 v -4.375 h -2.133 v -11.281 l -4.985,8.527 v 2.754 h -2.48 l 7.582,-12.555 h -4.984 l -7.578,12.555 v 4.375 h 7.46 v 4.184 h 4.985 v -4.184 z"
         style="fill:#7a0000;fill-opacity:1;fill-rule:nonzero;stroke:none"
         id="path292" /><path
         d="m 292.594,462.457 5.156,9.266 h 4.594 l -7.219,-12.453 6.672,-8.36 h -4.735 l -7.203,9.719 v -9.719 h -3.953 v 20.813 h 3.953 v -5.813 z"
         style="fill:#000000;fill-opacity:1;fill-rule:nonzero;stroke:none"
         id="path294" /><path
         d="m 304.469,450.91 h 3.953 v 20.812 h -3.953 z"
         style="fill:#000000;fill-opacity:1;fill-rule:nonzero;stroke:none"
         id="path296" /><path
         d="m 325.168,454.348 v -3.438 h -14.594 v 3.438 h 5.297 v 17.375 h 3.984 v -17.375 z"
         style="fill:#000000;fill-opacity:1;fill-rule:nonzero;stroke:none"
         id="path298" /><path
         d="m 107.422,559.66 c -10.18,3.567 -21.496,1.141 -29.32,-6.285 l 19.804,-20.859 z"
         style="fill:#abacae;fill-opacity:1;fill-rule:nonzero;stroke:none"
         id="path300" /><path
         d="m 75.898,551.035 c -8.293,-9.855 -9.023,-24.019 -1.793,-34.676 7.235,-10.656 20.668,-15.207 32.887,-11.14 l -9.086,27.297 z"
         style="fill:#abacae;fill-opacity:1;fill-rule:nonzero;stroke:none"
         id="path302" /><path
         d="m 87.262,552.164 c -10.824,-5.883 -14.836,-19.43 -8.953,-30.254 5.882,-10.828 19.429,-14.84 30.257,-8.957 10.829,5.883 14.836,19.43 8.954,30.258 -5.883,10.828 -19.43,14.836 -30.258,8.953 z"
         style="fill:#fafafa;fill-opacity:1;fill-rule:nonzero;stroke:none"
         id="path304" /><path
         d="m 75.977,551.168 c -2.586,-3.051 -4.508,-6.609 -5.645,-10.445 l 27.582,-8.164 z"
         style="fill:#abacae;fill-opacity:1;fill-rule:nonzero;stroke:none"
         id="path306" /><path
         d="m 102.598,546.848 c -6.211,2.035 -13.024,-0.176 -16.86,-5.469 -3.832,-5.289 -3.808,-12.453 0.059,-17.719 3.867,-5.265 10.695,-7.433 16.891,-5.359 l -4.774,14.258 z"
         style="fill:#abacae;fill-opacity:1;fill-rule:nonzero;stroke:none"
         id="path308" /><path
         d="m 94.344,539.133 c -3.633,-1.973 -4.977,-6.516 -3.004,-10.145 1.972,-3.633 6.515,-4.976 10.144,-3.004 3.633,1.973 4.977,6.516 3.004,10.149 -1.972,3.629 -6.515,4.972 -10.144,3 z"
         style="fill:#fafafa;fill-opacity:1;fill-rule:nonzero;stroke:none"
         id="path310" /><path
         d="m 74.281,516.16 c 1.379,-1.988 3.008,-3.801 4.844,-5.383 l 18.789,21.782 z"
         style="fill:#abacae;fill-opacity:1;fill-rule:nonzero;stroke:none"
         id="path312" /><path
         d="m 101.414,534.711 v -2.152 h -1.047 v -5.547 l -2.453,4.191 v 1.356 h -1.219 l 3.731,-6.176 h -2.453 l -3.731,6.176 v 2.152 h 3.672 v 2.059 h 2.453 v -2.059 z"
         style="fill:#7a0000;fill-opacity:1;fill-rule:nonzero;stroke:none"
         id="path314" /><path
         d="m 110,537.926 5.156,9.265 h 4.594 l -7.219,-12.453 6.672,-8.359 h -4.734 l -7.203,9.719 v -9.719 h -3.954 v 20.812 h 3.954 v -5.812 z"
         style="fill:#000000;fill-opacity:1;fill-rule:nonzero;stroke:none"
         id="path316" /><path
         d="m 121.879,526.379 h 3.953 v 20.812 h -3.953 z"
         style="fill:#000000;fill-opacity:1;fill-rule:nonzero;stroke:none"
         id="path318" /><path
         d="m 142.578,529.816 v -3.437 h -14.594 v 3.437 h 5.297 v 17.375 h 3.985 v -17.375 z"
         style="fill:#000000;fill-opacity:1;fill-rule:nonzero;stroke:none"
         id="path320" /><g
         id="g322"><path
           d="m 113.262,525.02 h 1.777 v -4.547 c 0,-2.43 -1.625,-2.75 -2.902,-2.75 -1.219,0 -2.219,0.375 -2.899,0.836 l 0.555,1.464 c 0.664,-0.461 1.359,-0.711 2.191,-0.711 0.821,0 1.278,0.352 1.278,1.133 v 0.36 c -0.43,-0.207 -0.946,-0.332 -1.625,-0.332 -1.399,0 -2.817,0.711 -2.817,2.355 0,1.563 1.141,2.36 2.61,2.36 0.929,0 1.5,-0.348 1.832,-0.684 z m -1.485,-1.422 c -0.777,0 -1.195,-0.309 -1.195,-0.77 0,-0.586 0.613,-0.82 1.363,-0.82 0.485,0 0.942,0.082 1.317,0.234 v 0.77 c -0.348,0.32 -0.832,0.586 -1.485,0.586 z"
           style="fill:none;stroke:#fafafa;stroke-width:0.749993;stroke-linecap:butt;stroke-linejoin:miter;stroke-miterlimit:4;stroke-dasharray:none;stroke-opacity:1"
           id="path324" /></g><path
         d="m 113.262,525.02 h 1.777 v -4.547 c 0,-2.43 -1.625,-2.75 -2.902,-2.75 -1.219,0 -2.219,0.375 -2.899,0.836 l 0.555,1.464 c 0.664,-0.461 1.359,-0.711 2.191,-0.711 0.821,0 1.278,0.352 1.278,1.133 v 0.36 c -0.43,-0.207 -0.946,-0.332 -1.625,-0.332 -1.399,0 -2.817,0.711 -2.817,2.355 0,1.563 1.141,2.36 2.61,2.36 0.929,0 1.5,-0.348 1.832,-0.684 z m -1.485,-1.422 c -0.777,0 -1.195,-0.309 -1.195,-0.77 0,-0.586 0.613,-0.82 1.363,-0.82 0.485,0 0.942,0.082 1.317,0.234 v 0.77 c -0.348,0.32 -0.832,0.586 -1.485,0.586 z"
         style="fill:#000000;fill-opacity:1;fill-rule:nonzero;stroke:none"
         id="path326" /><g
         id="g328"><path
           d="m 119.562,525.188 c 0.719,0 1.235,-0.25 1.524,-0.684 v 0.516 h 1.805 v -10.075 l -1.805,0.825 v 2.636 c -0.316,-0.406 -0.805,-0.683 -1.512,-0.683 -1.691,0 -2.941,1.422 -2.941,3.726 0,2.414 1.152,3.739 2.929,3.739 z m 0.29,-1.743 c -0.93,0 -1.414,-0.769 -1.414,-1.996 0,-1.285 0.511,-1.98 1.414,-1.98 0.625,0 1.043,0.32 1.234,0.586 v 2.816 c -0.262,0.379 -0.637,0.574 -1.234,0.574 z"
           style="fill:none;stroke:#fafafa;stroke-width:0.749993;stroke-linecap:butt;stroke-linejoin:miter;stroke-miterlimit:4;stroke-dasharray:none;stroke-opacity:1"
           id="path330" /></g><path
         d="m 119.562,525.188 c 0.719,0 1.235,-0.25 1.524,-0.684 v 0.516 h 1.805 v -10.075 l -1.805,0.825 v 2.636 c -0.316,-0.406 -0.805,-0.683 -1.512,-0.683 -1.691,0 -2.941,1.422 -2.941,3.726 0,2.414 1.152,3.739 2.929,3.739 z m 0.29,-1.743 c -0.93,0 -1.414,-0.769 -1.414,-1.996 0,-1.285 0.511,-1.98 1.414,-1.98 0.625,0 1.043,0.32 1.234,0.586 v 2.816 c -0.262,0.379 -0.637,0.574 -1.234,0.574 z"
         style="fill:#000000;fill-opacity:1;fill-rule:nonzero;stroke:none"
         id="path332" /><g
         id="g334"><path
           d="m 128.996,525.02 h 1.777 v -4.547 c 0,-2.43 -1.625,-2.75 -2.902,-2.75 -1.219,0 -2.219,0.375 -2.898,0.836 l 0.554,1.464 c 0.668,-0.461 1.36,-0.711 2.192,-0.711 0.82,0 1.277,0.352 1.277,1.133 v 0.36 c -0.43,-0.207 -0.941,-0.332 -1.625,-0.332 -1.398,0 -2.816,0.711 -2.816,2.355 0,1.563 1.14,2.36 2.609,2.36 0.93,0 1.5,-0.348 1.832,-0.684 z m -1.484,-1.422 c -0.778,0 -1.196,-0.309 -1.196,-0.77 0,-0.586 0.614,-0.82 1.364,-0.82 0.484,0 0.941,0.082 1.316,0.234 v 0.77 c -0.348,0.32 -0.832,0.586 -1.484,0.586 z"
           style="fill:none;stroke:#fafafa;stroke-width:0.749993;stroke-linecap:butt;stroke-linejoin:miter;stroke-miterlimit:4;stroke-dasharray:none;stroke-opacity:1"
           id="path336" /></g><path
         d="m 128.996,525.02 h 1.777 v -4.547 c 0,-2.43 -1.625,-2.75 -2.902,-2.75 -1.219,0 -2.219,0.375 -2.898,0.836 l 0.554,1.464 c 0.668,-0.461 1.36,-0.711 2.192,-0.711 0.82,0 1.277,0.352 1.277,1.133 v 0.36 c -0.43,-0.207 -0.941,-0.332 -1.625,-0.332 -1.398,0 -2.816,0.711 -2.816,2.355 0,1.563 1.14,2.36 2.609,2.36 0.93,0 1.5,-0.348 1.832,-0.684 z m -1.484,-1.422 c -0.778,0 -1.196,-0.309 -1.196,-0.77 0,-0.586 0.614,-0.82 1.364,-0.82 0.484,0 0.941,0.082 1.316,0.234 v 0.77 c -0.348,0.32 -0.832,0.586 -1.484,0.586 z"
         style="fill:#000000;fill-opacity:1;fill-rule:nonzero;stroke:none"
         id="path338" /><g
         id="g340"><path
           d="m 132.715,525.02 h 1.805 v -3.977 c 0,-1.227 0.597,-1.535 1.218,-1.535 0.555,0 0.957,0.183 1.293,0.418 l 0.25,-1.66 c -0.402,-0.332 -0.847,-0.543 -1.445,-0.543 -0.707,0 -1.109,0.347 -1.316,0.797 v -0.629 h -1.805 z"
           style="fill:none;stroke:#fafafa;stroke-width:0.749993;stroke-linecap:butt;stroke-linejoin:miter;stroke-miterlimit:4;stroke-dasharray:none;stroke-opacity:1"
           id="path342" /></g><path
         d="m 132.715,525.02 h 1.805 v -3.977 c 0,-1.227 0.597,-1.535 1.218,-1.535 0.555,0 0.957,0.183 1.293,0.418 l 0.25,-1.66 c -0.402,-0.332 -0.847,-0.543 -1.445,-0.543 -0.707,0 -1.109,0.347 -1.316,0.797 v -0.629 h -1.805 z"
         style="fill:#000000;fill-opacity:1;fill-rule:nonzero;stroke:none"
         id="path344" /><g
         id="g346"><path
           d="m 103.562,525.02 h 1.805 v -3.977 c 0,-0.652 0.375,-1.535 1.219,-1.535 0.559,0 0.961,0.183 1.293,0.418 l 0.25,-1.66 c -0.402,-0.332 -0.848,-0.543 -1.445,-0.543 -0.539,0 -1.008,0.093 -1.403,0.265 -0.871,0.407 -1.234,1.149 -1.535,1.922 -0.125,0.449 -0.184,0.957 -0.184,1.508 z"
           style="fill:none;stroke:#fafafa;stroke-width:0.749993;stroke-linecap:butt;stroke-linejoin:miter;stroke-miterlimit:4;stroke-dasharray:none;stroke-opacity:1"
           id="path348" /></g><path
         d="m 103.562,525.02 h 1.805 v -3.977 c 0,-0.652 0.375,-1.535 1.219,-1.535 0.559,0 0.961,0.183 1.293,0.418 l 0.25,-1.66 c -0.402,-0.332 -0.848,-0.543 -1.445,-0.543 -0.539,0 -1.008,0.093 -1.403,0.265 -0.871,0.407 -1.234,1.149 -1.535,1.922 -0.125,0.449 -0.184,0.957 -0.184,1.508 z"
         style="fill:#000000;fill-opacity:1;fill-rule:nonzero;stroke:none"
         id="path350" /><path
         d="m 301.16,505.367 c 10.18,-3.566 21.5,-1.14 29.32,6.285 l -19.804,20.864 z"
         style="fill:#abacae;fill-opacity:1;fill-rule:nonzero;stroke:none"
         id="path352" /><path
         d="m 332.688,513.992 c 8.289,9.856 9.023,24.02 1.789,34.676 -7.231,10.656 -20.665,15.207 -32.887,11.141 l 9.086,-27.293 z"
         style="fill:#abacae;fill-opacity:1;fill-rule:nonzero;stroke:none"
         id="path354" /><path
         d="m 321.32,512.863 c 10.828,5.883 14.836,19.43 8.953,30.258 -5.882,10.828 -19.425,14.836 -30.253,8.953 -10.829,-5.883 -14.84,-19.429 -8.958,-30.258 5.883,-10.828 19.43,-14.836 30.258,-8.953 z"
         style="fill:#fafafa;fill-opacity:1;fill-rule:nonzero;stroke:none"
         id="path356" /><path
         d="m 332.605,513.859 c 2.586,3.051 4.512,6.61 5.645,10.446 l -27.582,8.164 z"
         style="fill:#abacae;fill-opacity:1;fill-rule:nonzero;stroke:none"
         id="path358" /><path
         d="m 305.988,518.18 c 6.207,-2.032 13.02,0.175 16.856,5.468 3.832,5.29 3.812,12.454 -0.059,17.719 -3.867,5.27 -10.695,7.434 -16.89,5.36 l 4.773,-14.258 z"
         style="fill:#abacae;fill-opacity:1;fill-rule:nonzero;stroke:none"
         id="path360" /><path
         d="m 314.242,525.895 c 3.629,1.972 4.973,6.515 3,10.144 -1.972,3.633 -6.515,4.977 -10.144,3.004 -3.633,-1.973 -4.977,-6.516 -3.004,-10.145 1.972,-3.632 6.515,-4.976 10.148,-3.003 z"
         style="fill:#fafafa;fill-opacity:1;fill-rule:nonzero;stroke:none"
         id="path362" /><path
         d="m 334.305,548.867 c -1.383,1.992 -3.012,3.801 -4.848,5.383 l -18.789,-21.781 z"
         style="fill:#abacae;fill-opacity:1;fill-rule:nonzero;stroke:none"
         id="path364" /><path
         d="m 257.633,541.773 v -3.265 h -1.59 v -8.418 l -3.719,6.363 v 2.055 h -1.851 l 5.656,-9.367 h -3.719 l -5.66,9.367 v 3.265 h 5.574 v 3.125 h 3.719 v -3.125 z"
         style="fill:#7a0000;fill-opacity:1;fill-rule:nonzero;stroke:none"
         id="path366" /><path
         d="m 271.191,526.406 h 2.137 v -5.441 c 0,-2.903 -1.953,-3.285 -3.488,-3.285 -1.469,0 -2.668,0.449 -3.488,1 l 0.668,1.75 c 0.8,-0.547 1.636,-0.848 2.636,-0.848 0.985,0 1.535,0.414 1.535,1.352 v 0.433 c -0.515,-0.25 -1.132,-0.402 -1.949,-0.402 -1.687,0 -3.39,0.851 -3.39,2.82 0,1.871 1.371,2.82 3.136,2.82 1.121,0 1.805,-0.414 2.203,-0.816 z m -1.785,-1.703 c -0.933,0 -1.433,-0.367 -1.433,-0.918 0,-0.699 0.734,-0.984 1.636,-0.984 0.582,0 1.133,0.101 1.582,0.285 v 0.918 c -0.414,0.383 -1,0.699 -1.785,0.699 z"
         style="fill:#000000;fill-opacity:1;fill-rule:nonzero;stroke:none"
         id="path368" /><path
         d="m 278.77,526.605 c 0.867,0 1.484,-0.3 1.835,-0.816 v 0.617 h 2.172 v -12.051 l -2.172,0.985 v 3.156 c -0.382,-0.484 -0.968,-0.816 -1.82,-0.816 -2.035,0 -3.535,1.699 -3.535,4.453 0,2.887 1.383,4.472 3.52,4.472 z m 0.351,-2.085 c -1.117,0 -1.703,-0.918 -1.703,-2.387 0,-1.535 0.617,-2.367 1.703,-2.367 0.75,0 1.25,0.382 1.484,0.699 v 3.371 c -0.316,0.449 -0.765,0.684 -1.484,0.684 z"
         style="fill:#000000;fill-opacity:1;fill-rule:nonzero;stroke:none"
         id="path370" /><path
         d="m 290.117,526.406 h 2.137 v -5.441 c 0,-2.903 -1.953,-3.285 -3.488,-3.285 -1.469,0 -2.668,0.449 -3.489,1 l 0.668,1.75 c 0.801,-0.547 1.637,-0.848 2.637,-0.848 0.984,0 1.535,0.414 1.535,1.352 v 0.433 c -0.515,-0.25 -1.133,-0.402 -1.949,-0.402 -1.688,0 -3.391,0.851 -3.391,2.82 0,1.871 1.371,2.82 3.137,2.82 1.121,0 1.805,-0.414 2.203,-0.816 z m -1.785,-1.703 c -0.934,0 -1.434,-0.367 -1.434,-0.918 0,-0.699 0.735,-0.984 1.637,-0.984 0.582,0 1.133,0.101 1.582,0.285 v 0.918 c -0.414,0.383 -1,0.699 -1.785,0.699 z"
         style="fill:#000000;fill-opacity:1;fill-rule:nonzero;stroke:none"
         id="path372" /><path
         d="m 294.59,526.406 h 2.172 v -4.758 c 0,-1.468 0.718,-1.836 1.468,-1.836 0.668,0 1.153,0.219 1.551,0.504 l 0.301,-1.988 c -0.484,-0.398 -1.02,-0.648 -1.734,-0.648 -0.852,0 -1.336,0.414 -1.586,0.949 v -0.75 h -2.172 z"
         style="fill:#000000;fill-opacity:1;fill-rule:nonzero;stroke:none"
         id="path374" /><path
         d="m 259.309,550.082 h 4.984 v -5.469 l 2.281,-3.078 4.922,8.547 h 5.453 l -7.469,-12.484 6.282,-8.36 h -5.438 l -5.937,8.266 h -0.094 v -8.266 h -4.984 z"
         style="fill:#0e141f;fill-opacity:1;fill-rule:nonzero;stroke:none"
         id="path376" /><path
         d="m 279.133,529.238 h 4.984 v 20.844 h -4.984 z"
         style="fill:#0e141f;fill-opacity:1;fill-rule:nonzero;stroke:none"
         id="path378" /><path
         d="m 292.992,550.082 h 4.953 v -16.687 h 5.672 v -4.157 H 287.32 v 4.157 h 5.672 z"
         style="fill:#0e141f;fill-opacity:1;fill-rule:nonzero;stroke:none"
         id="path380" /><path
         d="m 259.527,526.406 h 2.168 v -4.758 c 0,-0.777 0.453,-1.836 1.469,-1.836 0.668,0 1.152,0.219 1.555,0.504 l 0.301,-1.988 c -0.485,-0.398 -1.02,-0.648 -1.739,-0.648 -2.605,0 -3.754,1.777 -3.754,4.418 z"
         style="fill:#000000;fill-opacity:1;fill-rule:nonzero;stroke:none"
         id="path382" /></g><circle
       style="fill:#aa0000;stroke-width:1.98425;stroke-linecap:round"
       id="circle1223"
       cx="60"
       cy="5.9999833"
       r="15" /><circle
       style="fill:#e9afaf;stroke-width:1.98425;stroke-linecap:round"
       id="circle1225"
       cx="60"
       cy="5.9999833"
       r="11.250002" /><circle
       style="fill:#800000;stroke-width:1.98425;stroke-linecap:round"
       id="circle1227"
       cx="60"
       cy="5.9999833"
       r="7.5000019" /><circle
       style="fill:#e9afaf;stroke-width:1.98425;stroke-linecap:round"
       id="circle1229"
       cx="60"
       cy="5.9999833"
       r="3.7500017" /><path
       style="fill:#000000;stroke:none;stroke-width:0.75px;stroke-linecap:butt;stroke-linejoin:miter;stroke-opacity:1"
       d="M 57.945974,25.47284 59.445971,40.397652 54.61309,30.142538 Z"
       id="path1308" /><path
       style="fill:#000000;stroke:none;stroke-width:0.75px;stroke-linecap:butt;stroke-linejoin:miter;stroke-opacity:1"
       d="m 59.443863,25.397652 0.0021,15 3.781644,-10.687529 z"
       id="path1310" /><path
       style="fill:#000000;stroke:none;stroke-width:0.75px;stroke-linecap:butt;stroke-linejoin:miter;stroke-opacity:1"
       d="m 59.445971,40.435246 -1.499997,-14.924811 1.497889,-0.07519 0.0021,14.999999"
       id="path1313"
       sodipodi:nodetypes="cccc" /><g
       id="g1471"><path
         id="circle1219"
         style="fill:#abacae;fill-opacity:1;stroke-width:1.98425;stroke-linecap:round"
         d="m -158.66902,-468.15856 5.81009,5.8101 a 24.650147,24.650147 0 0 1 0.002,-0.002 l 5.8101,5.81009 5.81009,5.8101 a 8.216718,8.216718 0 0 1 1.98361,-1.4616 8.216718,8.216718 0 0 1 0.28824,-0.14303 8.216718,8.216718 0 0 1 7.64618,0.30186 l -4.10792,7.11281 6.24585,-5.33801 a 8.216718,8.216718 0 0 1 1.68856,3.2137 l 7.93666,-2.12651 a 16.433432,16.433432 0 0 0 -3.37712,-6.42288 l 6.24585,-5.33802 a 24.650147,24.650147 0 0 1 5.06795,9.63432 l 7.93895,-2.12886 a 32.866857,32.866857 0 0 0 -8.50634,-14.73404 32.866857,32.866857 0 0 0 -6.80644,-5.22228 32.866857,32.866857 0 0 0 -39.67431,5.22227 32.866857,32.866857 0 0 0 -0.002,0.002 z m 0,0 a 32.866857,32.866857 0 0 0 -2.1856,2.41256 z m 54.98924,14.73225 a 32.866857,32.866857 0 0 1 0.15433,0.59918 32.866857,32.866857 0 0 0 -0.15433,-0.59918 z m 0.15433,0.59918 a 32.866857,32.866857 0 0 1 0.14298,0.60142 32.866857,32.866857 0 0 0 -0.14298,-0.60142 z m 0.14298,0.60142 a 32.866857,32.866857 0 0 1 0.12483,0.56513 32.866857,32.866857 0 0 0 -0.12483,-0.56513 z m -57.49043,-13.49258 a 32.866857,32.866857 0 0 0 2.20602,44.03871 l 5.81009,-5.8101 a 24.650147,24.650147 0 0 1 -1.65444,-33.02929 z m 14.8339,-1.44799 a 24.650147,24.650147 0 0 1 22.93852,0.90103 l -4.11019,7.1151 a 16.433432,16.433432 0 0 0 -15.29007,-0.60145 z m -2.1107,11.84716 a 16.433432,16.433432 0 0 0 1.103,22.01935 l 5.8101,-5.8101 a 8.216718,8.216718 0 0 1 -0.55151,-11.00966 z m -10.1949,33.95728 a 32.866857,32.866857 0 0 0 0.36313,0.34497 32.866857,32.866857 0 0 1 -0.36313,-0.34497 z m 0.41079,0.39263 a 32.866857,32.866857 0 0 0 0.30866,0.28595 32.866857,32.866857 0 0 1 -0.30866,-0.28595 z m 0.52654,0.48569 a 32.866857,32.866857 0 0 0 0.34727,0.30629 32.866857,32.866857 0 0 1 -0.34727,-0.30629 z m 0.3881,0.3427 a 32.866857,32.866857 0 0 0 0.45618,0.38809 32.866857,32.866857 0 0 1 -0.45618,-0.38809 z m 0.45618,0.38809 a 32.866857,32.866857 0 0 0 0.40172,0.33358 32.866857,32.866857 0 0 1 -0.40172,-0.33358 z m 2.02445,1.57054 a 32.866857,32.866857 0 0 0 0.42895,0.30186 32.866857,32.866857 0 0 1 -0.42895,-0.30186 z m 0.42895,0.30186 a 32.866857,32.866857 0 0 0 0.39034,0.26791 32.866857,32.866857 0 0 1 -0.39034,-0.26791 z m 1.566,1.01677 a 32.866857,32.866857 0 0 0 0.4834,0.28831 32.866857,32.866857 0 0 1 -0.4834,-0.28831 z m 12.1717,4.43701 a 32.866857,32.866857 0 0 0 0.53787,0.075 32.866857,32.866857 0 0 1 -0.53787,-0.075 z m 37.62724,-35.97066 a 32.866857,32.866857 0 0 1 0.0431,0.43803 32.866857,32.866857 0 0 0 -0.0431,-0.43803 z m -0.10894,7.85725 a 32.866857,32.866857 0 0 1 -0.0794,0.56058 32.866857,32.866857 0 0 0 0.0794,-0.56058 z m -0.20199,1.30046 a 32.866857,32.866857 0 0 1 -0.0931,0.5061 32.866857,32.866857 0 0 0 0.0931,-0.5061 z m -0.0931,0.51971 a 32.866857,32.866857 0 0 1 -0.12259,0.59464 32.866857,32.866857 0 0 0 0.12259,-0.59464 z m -0.12259,0.59464 a 32.866857,32.866857 0 0 1 -0.12485,0.57416 32.866857,32.866857 0 0 0 0.12485,-0.57416 z m -25.46455,25.38284 a 32.866857,32.866857 0 0 0 0.56967,-0.12482 32.866857,32.866857 0 0 1 -0.56967,0.12482 z m 0.56967,-0.12482 a 32.866857,32.866857 0 0 0 0.56285,-0.13165 32.866857,32.866857 0 0 1 -0.56285,0.13165 z m 1.27549,-0.3132 a 32.866857,32.866857 0 0 0 0.39491,-0.10901 32.866857,32.866857 0 0 1 -0.39491,0.10901 z m 1.11209,-0.32229 a 32.866857,32.866857 0 0 0 0.49931,-0.15886 32.866857,32.866857 0 0 1 -0.49931,0.15886 z m 1.18698,-0.38808 a 32.866857,32.866857 0 0 0 0.56513,-0.20653 32.866857,32.866857 0 0 1 -0.56513,0.20653 z m 0.57193,-0.20882 a 32.866857,32.866857 0 0 0 0.51973,-0.1929 32.866857,32.866857 0 0 1 -0.51973,0.1929 z m 0.60598,-0.22922 a 32.866857,32.866857 0 0 0 0.37902,-0.15206 32.866857,32.866857 0 0 1 -0.37902,0.15206 z m 3.33854,-1.53195 a 32.866857,32.866857 0 0 0 0.54242,-0.29278 32.866857,32.866857 0 0 1 -0.54242,0.29278 z m 0.54242,-0.29278 a 32.866857,32.866857 0 0 0 0.51745,-0.29052 32.866857,32.866857 0 0 1 -0.51745,0.29052 z m 12.49623,-12.21028 a 32.866857,32.866857 0 0 1 -0.27006,0.45618 32.866857,32.866857 0 0 0 0.27006,-0.45618 z m -0.65589,1.07804 a 32.866857,32.866857 0 0 1 -0.2837,0.44256 32.866857,32.866857 0 0 0 0.2837,-0.44256 z m -9.92255,9.9861 a 32.866857,32.866857 0 0 0 0.51746,-0.34044 32.866857,32.866857 0 0 1 -0.51746,0.34044 z m 9.54353,-9.4028 a 32.866857,32.866857 0 0 1 -0.28824,0.42441 32.866857,32.866857 0 0 0 0.28824,-0.42441 z m -1.49564,2.06301 a 32.866857,32.866857 0 0 1 -0.27007,0.34272 32.866857,32.866857 0 0 0 0.27007,-0.34272 z m -0.27007,0.34272 a 32.866857,32.866857 0 0 1 -0.38357,0.46525 32.866857,32.866857 0 0 0 0.38357,-0.46525 z m -5.26314,5.20414 a 32.866857,32.866857 0 0 0 0.48341,-0.38811 32.866857,32.866857 0 0 1 -0.48341,0.38811 z m 0.48341,-0.38811 a 32.866857,32.866857 0 0 0 0.47434,-0.39718 32.866857,32.866857 0 0 1 -0.47434,0.39718 z m 4.35077,-4.29629 a 32.866857,32.866857 0 0 1 -0.34951,0.40851 32.866857,32.866857 0 0 0 0.34951,-0.40851 z m -0.39037,0.45844 a 32.866857,32.866857 0 0 1 -0.35177,0.39717 32.866857,32.866857 0 0 0 0.35177,-0.39717 z m -2.49652,2.56461 a 32.866857,32.866857 0 0 0 0.35178,-0.32908 32.866857,32.866857 0 0 1 -0.35178,0.32908 z" /><text
         xml:space="preserve"
         style="font-style:normal;font-variant:normal;font-weight:bold;font-stretch:normal;font-size:20.478px;line-height:1.25;font-family:D-DIN;-inkscape-font-specification:'D-DIN, Bold';font-variant-ligatures:normal;font-variant-caps:normal;font-variant-numeric:normal;font-variant-east-asian:normal;text-align:center;letter-spacing:0px;word-spacing:0px;writing-mode:lr-tb;text-anchor:middle;fill:#000000;fill-opacity:1;stroke:none;stroke-width:0.75"
         x="-106.44355"
         y="-444.65228"
         id="text1375"
         transform="scale(1.0238963,0.97666138)"><tspan
           sodipodi:role="line"
           id="tspan1373"
           x="-106.44355"
           y="-444.65228"
           style="font-style:normal;font-variant:normal;font-weight:bold;font-stretch:normal;font-size:20.478px;font-family:D-DIN;-inkscape-font-specification:'D-DIN, Bold';font-variant-ligatures:normal;font-variant-caps:normal;font-variant-numeric:normal;font-variant-east-asian:normal;stroke-width:0.75">radar</tspan></text><g
         aria-label="KIT"
         transform="scale(0.99335327,1.0066912)"
         id="text1379"
         style="font-style:normal;font-variant:normal;font-weight:bold;font-stretch:normal;font-size:30.9198px;line-height:1.25;font-family:D-DIN;-inkscape-font-specification:'D-DIN, Bold';font-variant-ligatures:normal;font-variant-caps:normal;font-variant-numeric:normal;font-variant-east-asian:normal;text-align:center;letter-spacing:0px;word-spacing:0px;writing-mode:lr-tb;text-anchor:middle;fill:#000000;fill-opacity:1;stroke:#000000;stroke-width:1.5;stroke-miterlimit:4;stroke-dasharray:none"><path
           d="m -124.41299,-416.86869 5.28729,9.49238 h 4.69981 l -7.38984,-12.76988 6.83328,-8.56478 h -4.85441 l -7.38983,9.95617 v -9.95617 h -4.05049 v 21.33466 h 4.05049 v -5.96752 z"
           style="font-style:normal;font-variant:normal;font-weight:bold;font-stretch:normal;font-size:30.9198px;font-family:D-DIN;-inkscape-font-specification:'D-DIN, Bold';font-variant-ligatures:normal;font-variant-caps:normal;font-variant-numeric:normal;font-variant-east-asian:normal;fill:#000000;stroke:#000000;stroke-width:1.5;stroke-miterlimit:4;stroke-dasharray:none"
           id="path1436" /><path
           d="m -110.37955,-428.71097 v 21.33466 h 4.0505 v -21.33466 z"
           style="font-style:normal;font-variant:normal;font-weight:bold;font-stretch:normal;font-size:30.9198px;font-family:D-DIN;-inkscape-font-specification:'D-DIN, Bold';font-variant-ligatures:normal;font-variant-caps:normal;font-variant-numeric:normal;font-variant-east-asian:normal;fill:#000000;stroke:#000000;stroke-width:1.5;stroke-miterlimit:4;stroke-dasharray:none"
           id="path1438" /><path
           d="m -87.395873,-425.18612 v -3.52485 h -14.965187 v 3.52485 h 5.441892 v 17.80981 h 4.08141 v -17.80981 z"
           style="font-style:normal;font-variant:normal;font-weight:bold;font-stretch:normal;font-size:30.9198px;font-family:D-DIN;-inkscape-font-specification:'D-DIN, Bold';font-variant-ligatures:normal;font-variant-caps:normal;font-variant-numeric:normal;font-variant-east-asian:normal;fill:#000000;stroke:#000000;stroke-width:1.5;stroke-miterlimit:4;stroke-dasharray:none"
           id="path1440" /></g><path
         d="m -133.98875,-414.31762 v -5.18537 h -2.52641 v -13.37915 l -5.90735,10.11168 v 3.26747 h -2.94113 l 8.99006,-14.88937 h -5.91137 l -8.98603,14.88937 v 5.18537 h 8.84847 v 4.96547 h 5.90735 v -4.96547 z"
         style="fill:#0e9a83;fill-opacity:1;fill-rule:nonzero;stroke:none;stroke-width:0.999994"
         id="path156" /></g></g></svg>
