<?xml version="1.0" encoding="UTF-8" standalone="no"?>
<svg
   xmlns:dc="http://purl.org/dc/elements/1.1/"
   xmlns:cc="http://creativecommons.org/ns#"
   xmlns:rdf="http://www.w3.org/1999/02/22-rdf-syntax-ns#"
   xmlns:svg="http://www.w3.org/2000/svg"
   xmlns="http://www.w3.org/2000/svg"
   xmlns:xlink="http://www.w3.org/1999/xlink"
   xmlns:sodipodi="http://sodipodi.sourceforge.net/DTD/sodipodi-0.dtd"
   xmlns:inkscape="http://www.inkscape.org/namespaces/inkscape"
   width="320.46744mm"
   height="73.256012mm"
   viewBox="0 0 320.46744 73.256012"
   version="1.1"
   id="svg8"
   sodipodi:docname="banner.svg"
   inkscape:export-filename="/home/ptrxyz/scratch/r4k-web/img/banner2.png"
   inkscape:export-xdpi="158.52"
   inkscape:export-ydpi="158.52"
   inkscape:version="1.0.1 (3bc2e813f5, 2020-09-07)">
  <defs
     id="defs2">
    <linearGradient
       inkscape:collect="always"
       id="linearGradient1197">
      <stop
         style="stop-color:#007367;stop-opacity:1"
         offset="0"
         id="stop1193" />
      <stop
         style="stop-color:#43d6b5;stop-opacity:1"
         offset="1"
         id="stop1195" />
    </linearGradient>
    <linearGradient
       inkscape:collect="always"
       id="linearGradient1189">
      <stop
         style="stop-color:#00c0a7;stop-opacity:1"
         offset="0"
         id="stop1185" />
      <stop
         style="stop-color:#009682;stop-opacity:1"
         offset="1"
         id="stop1187" />
    </linearGradient>
    <inkscape:path-effect
       effect="bspline"
       id="path-effect1183"
       is_visible="true"
       lpeversion="1"
       weight="33.333333"
       steps="2"
       helper_size="0"
       apply_no_weight="true"
       apply_with_weight="true"
       only_selected="false" />
    <inkscape:path-effect
       effect="bspline"
       id="path-effect1179"
       is_visible="true"
       lpeversion="1"
       weight="33.333333"
       steps="2"
       helper_size="0"
       apply_no_weight="true"
       apply_with_weight="true"
       only_selected="false" />
    <inkscape:path-effect
       effect="bspline"
       id="path-effect1117"
       is_visible="true"
       lpeversion="1"
       weight="33.333333"
       steps="2"
       helper_size="0"
       apply_no_weight="true"
       apply_with_weight="true"
       only_selected="false" />
    <inkscape:path-effect
       effect="bspline"
       id="path-effect1113"
       is_visible="true"
       lpeversion="1"
       weight="33.333333"
       steps="2"
       helper_size="0"
       apply_no_weight="true"
       apply_with_weight="true"
       only_selected="false" />
    <inkscape:path-effect
       effect="bspline"
       id="path-effect847"
       is_visible="true"
       lpeversion="1"
       weight="33.333333"
       steps="2"
       helper_size="0"
       apply_no_weight="true"
       apply_with_weight="true"
       only_selected="false" />
    <inkscape:path-effect
       effect="bspline"
       id="path-effect843"
       is_visible="true"
       lpeversion="1"
       weight="33.333333"
       steps="2"
       helper_size="0"
       apply_no_weight="true"
       apply_with_weight="true"
       only_selected="false" />
    <radialGradient
       inkscape:collect="always"
       xlink:href="#linearGradient1189"
       id="radialGradient1191"
       cx="-165.84705"
       cy="-443.7233"
       fx="-165.84705"
       fy="-443.7233"
       r="144.89667"
       gradientTransform="matrix(0.77102303,-0.23610274,0.27235832,0.88942022,176.60282,-201.59347)"
       gradientUnits="userSpaceOnUse" />
    <radialGradient
       inkscape:collect="always"
       xlink:href="#linearGradient1197"
       id="radialGradient1199"
       cx="379.34164"
       cy="-473.62222"
       fx="379.34164"
       fy="-473.62222"
       r="144.89667"
       gradientTransform="matrix(-0.49433995,-1.2653624,0.86641588,-0.33848325,856.79156,-224.62351)"
       gradientUnits="userSpaceOnUse" />
    <filter
       inkscape:collect="always"
       style="color-interpolation-filters:sRGB"
       id="filter1211"
       x="-0.063721758"
       width="1.1274435"
       y="-0.068504262"
       height="1.1370085">
      <feGaussianBlur
         inkscape:collect="always"
         stdDeviation="7.6942251"
         id="feGaussianBlur1213" />
    </filter>
    <filter
       inkscape:collect="always"
       style="color-interpolation-filters:sRGB"
       id="filter1215"
       x="-0.27401415"
       width="1.5480283"
       y="-0.29457971"
       height="1.5891594">
      <feGaussianBlur
         inkscape:collect="always"
         stdDeviation="33.086447"
         id="feGaussianBlur1217" />
    </filter>
  </defs>
  <sodipodi:namedview
     id="base"
     pagecolor="#ffffff"
     bordercolor="#666666"
     borderopacity="1.0"
     inkscape:pageopacity="0.0"
     inkscape:pageshadow="2"
     inkscape:zoom="0.7"
     inkscape:cx="391.7473"
     inkscape:cy="398.63591"
     inkscape:document-units="mm"
     inkscape:current-layer="layer1"
     inkscape:document-rotation="0"
     showgrid="false"
     fit-margin-top="0"
     fit-margin-left="0"
     fit-margin-right="0"
     fit-margin-bottom="0" />
  <metadata
     id="metadata5">
    <rdf:RDF>
      <cc:Work
         rdf:about="">
        <dc:format>image/svg+xml</dc:format>
        <dc:type
           rdf:resource="http://purl.org/dc/dcmitype/StillImage" />
        <dc:title></dc:title>
      </cc:Work>
    </rdf:RDF>
  </metadata>
  <g
     inkscape:label="Layer 1"
     inkscape:groupmode="layer"
     id="layer1"
     transform="translate(60.164283,611.95116)">
    <rect
       style="fill:#009682;stroke:#43d6b5;stroke-width:0.132292;stroke-linecap:round;stop-color:#000000;fill-opacity:1"
       id="rect1052"
       width="320.33514"
       height="73.123718"
       x="-60.098137"
       y="-611.88501"
       inkscape:export-xdpi="158.52"
       inkscape:export-ydpi="158.52" />
    <path
       style="fill:#00453e;fill-opacity:1;stroke:none;stroke-width:0.264583px;stroke-linecap:butt;stroke-linejoin:miter;stroke-opacity:1;filter:url(#filter1211)"
       d="m -98.021758,-640.7954 c -6.299482,16.12708 -5.543532,17.387 19.781432,22.74163 25.324962,5.35463 75.2168182,14.80384 77.79908154,35.5928 2.58226326,20.78896 -42.14403254,52.9163 -41.70246854,82.9028 0.441564,29.98649 46.0497775,57.83018 80.00471,61.29466 33.954933,3.46448 56.255085,-17.44978 66.334433,-57.20072 10.07934,-39.75094 7.93752,-98.33609 30.99464,-131.97621 23.05713,-33.64011 71.31113,-42.3334 42.14295,-53.4208 -29.16819,-11.0874 -135.755346,-24.56828 -195.727875,-15.81147 -59.972528,8.7568 -73.327419,39.75023 -79.626903,55.87731 z"
       id="path1177"
       transform="matrix(0.96592583,-0.25881905,-0.25881905,-0.96592583,-277.70478,-1124.9276)"
       inkscape:original-d="m -105.07738,-625.92855 c 0.75622,1.26018 1.51217,2.5201 2.26786,3.77976 49.894116,9.44986 99.7859757,18.89905 149.678566,28.3482 -44.7278123,32.12888 -89.454099,64.25623 -134.181544,96.38392 45.610302,27.84507 91.2185157,55.68876 136.827377,83.53274 22.301307,-20.91483 44.601457,-41.82909 66.901791,-62.74403 -2.14164,-58.58722 -4.28347,-117.17237 -6.4256,-175.75892 48.25619,-8.69336 96.51019,-17.38665 144.76488,-26.08038 -106.59115,-13.48115 -213.178306,-26.96202 -319.767854,-40.44344 -13.355162,30.99493 -26.710053,61.98836 -40.065476,92.98215 z"
       inkscape:path-effect="#path-effect1179" />
    <path
       style="fill:url(#radialGradient1191);fill-opacity:1;stroke:none;stroke-width:0.264583px;stroke-linecap:butt;stroke-linejoin:miter;stroke-opacity:1"
       d="m -206.53648,-480.5969 c -10.25883,-13.94714 -9.85472,-15.35978 13.22143,-27.08654 23.07616,-11.72676 68.82235,-33.76695 65.93605,-54.51589 -2.8863,-20.74893 -54.40376,-40.20554 -61.73832,-69.28455 -7.33456,-29.07902 29.51312,-67.77824 61.4144,-79.91285 31.90127,-12.13461 58.85457,2.29531 78.878769,38.08304 20.024199,35.78774 33.118308,92.93099 64.096485,119.45722 30.978177,26.52623 79.837957,22.43425 54.533275,40.69314 -25.304681,18.25889 -124.77085,58.8672 -184.966289,65.93081 -60.19544,7.06362 -81.11697,-19.41724 -91.3758,-33.36438 z"
       id="path1181"
       inkscape:path-effect="#path-effect1183"
       inkscape:original-d="m -217.19951,-493.13104 c 0.4043,-1.41297 0.8084,-2.82561 1.21231,-4.23794 45.74822,-22.04141 91.49442,-44.08159 137.241337,-66.12192 -51.519307,-19.4577 -103.036757,-38.91433 -154.555407,-58.37098 36.84933,-38.70108 73.69701,-77.4003 110.54523,-116.09996 26.954567,14.43017 53.907867,28.86009 80.861517,43.29062 13.09483,57.14521 26.188925,114.28846 39.2831054,171.43315 48.8619026,-4.09248 97.7216826,-8.18446 146.5822376,-12.2762 -99.469978,40.60962 -198.936152,81.21792 -298.4045,121.82738 -20.92217,-26.48223 -41.8437,-52.96309 -62.76583,-79.44415 z" />
    <path
       style="fill:#00453e;fill-opacity:1;stroke:none;stroke-width:0.264583px;stroke-linecap:butt;stroke-linejoin:miter;stroke-opacity:1;filter:url(#filter1215)"
       d="m -98.021758,-640.7954 c -6.299482,16.12708 -5.543532,17.387 19.781432,22.74163 25.324962,5.35463 75.2168182,14.80384 77.79908154,35.5928 2.58226326,20.78896 -42.14403254,52.9163 -41.70246854,82.9028 0.441564,29.98649 46.0497775,57.83018 80.00471,61.29466 33.954933,3.46448 56.255085,-17.44978 66.334433,-57.20072 10.07934,-39.75094 7.93752,-98.33609 30.99464,-131.97621 23.05713,-33.64011 71.31113,-42.3334 42.14295,-53.4208 -29.16819,-11.0874 -135.755346,-24.56828 -195.727875,-15.81147 -59.972528,8.7568 -73.327419,39.75023 -79.626903,55.87731 z"
       id="path1115"
       inkscape:path-effect="#path-effect1117"
       inkscape:original-d="m -105.07738,-625.92855 c 0.75622,1.26018 1.51217,2.5201 2.26786,3.77976 49.894116,9.44986 99.7859757,18.89905 149.678566,28.3482 -44.7278123,32.12888 -89.454099,64.25623 -134.181544,96.38392 45.610302,27.84507 91.2185157,55.68876 136.827377,83.53274 22.301307,-20.91483 44.601457,-41.82909 66.901791,-62.74403 -2.14164,-58.58722 -4.28347,-117.17237 -6.4256,-175.75892 48.25619,-8.69336 96.51019,-17.38665 144.76488,-26.08038 -106.59115,-13.48115 -213.178306,-26.96202 -319.767854,-40.44344 -13.355162,30.99493 -26.710053,61.98836 -40.065476,92.98215 z"
       transform="rotate(15,79.897581,223.84749)" />
    <path
       style="fill:url(#radialGradient1199);fill-opacity:1;stroke:none;stroke-width:0.264583px;stroke-linecap:butt;stroke-linejoin:miter;stroke-opacity:1"
       d="m 131.82674,-657.38232 c -10.25883,13.94714 -9.85472,15.35978 13.22143,27.08654 23.07616,11.72676 68.82235,33.76695 65.93605,54.51589 -2.8863,20.74893 -54.40376,40.20554 -61.73832,69.28455 -7.33456,29.07902 29.51312,67.77824 61.4144,79.91285 31.90127,12.13461 58.85457,-2.29531 78.87877,-38.08304 20.0242,-35.78774 33.11831,-92.93099 64.09649,-119.45722 30.97818,-26.52623 79.83796,-22.43425 54.53328,-40.69314 -25.30469,-18.25889 -124.77086,-58.8672 -184.9663,-65.93081 -60.19544,-7.06362 -81.11697,19.41724 -91.3758,33.36438 z"
       id="path1111"
       inkscape:path-effect="#path-effect1113"
       inkscape:original-d="m 121.16371,-644.84818 c 0.4043,1.41297 0.8084,2.82561 1.21231,4.23794 45.74822,22.04141 91.49442,44.08159 137.24134,66.12192 -51.51931,19.4577 -103.03676,38.91433 -154.55541,58.37098 36.84933,38.70108 73.69701,77.4003 110.54523,116.09996 26.95457,-14.43017 53.90787,-28.86009 80.86152,-43.29062 13.09483,-57.14521 26.18893,-114.28846 39.28311,-171.43315 48.8619,4.09248 97.72168,8.18446 146.58223,12.2762 -99.46997,-40.60962 -198.93615,-81.21792 -298.4045,-121.82738 -20.92217,26.48223 -41.8437,52.96309 -62.76583,79.44415 z" />
    <g
       id="g1099">
      <path
         style="fill:none;stroke:#43d6b5;stroke-width:0.264583px;stroke-linecap:butt;stroke-linejoin:miter;stroke-opacity:1"
         d="m -60.47619,-599.09225 c 11.150511,15.68631 22.30081,31.37232 42.11327,29.82855 19.8124591,-1.54376 48.286093,-20.31619 67.909551,-22.86723 19.623458,-2.55103 30.395561,11.11883 49.326105,13.63841 18.930544,2.51959 46.018304,-6.1107 70.051524,4.25261 24.03321,10.36332 45.01048,39.71889 59.43655,51.08945 14.42607,11.37056 22.30042,4.7561 30.1749,-1.85846"
         id="path841"
         inkscape:path-effect="#path-effect843"
         inkscape:original-d="m -60.47619,-599.09225 c 11.150563,15.68627 22.300861,31.37228 33.450892,47.05802 28.4750408,-18.77292 56.948678,-37.54535 85.42262,-56.31844 10.772801,13.67068 21.544907,27.34054 32.316962,41.01042 27.089096,-8.63037 54.176856,-17.26065 81.264876,-25.89138 20.97837,29.357 41.95563,58.71257 62.93304,88.06846 7.87492,-6.61445 15.74927,-13.2289 23.62351,-19.84375" />
      <path
         style="fill:none;stroke:#007367;stroke-width:0.264583px;stroke-linecap:butt;stroke-linejoin:miter;stroke-opacity:1"
         d="m -77.296131,-538.42708 c 27.277321,-21.41868 54.554604,-42.83733 81.2022865,-37.98616 26.6476825,4.85117 52.6645245,35.97059 75.8471205,33.82826 23.182594,-2.14232 43.529894,-37.54538 67.311284,-59.65715 23.78138,-22.11177 50.99512,-30.93104 70.55552,-36.75819 19.56041,-5.82716 31.46641,-8.66192 43.37248,-11.49669"
         id="path845"
         inkscape:path-effect="#path-effect847"
         inkscape:original-d="m -77.296131,-538.42708 c 27.277547,-21.41839 54.554828,-42.83704 81.8318452,-64.25594 26.0181468,31.12093 52.0349848,62.24035 78.0520828,93.36011 20.348393,-35.40421 40.695703,-70.80726 61.043153,-106.21132 27.21509,-8.81935 54.42884,-17.6386 81.64286,-26.45833 11.90675,-2.83461 23.81276,-5.66936 35.71875,-8.50445" />
      <g
         id="g1033">
        <path
           style="opacity:1;fill:none;fill-opacity:1;stroke:#43d6b5;stroke-width:0.264583px;stroke-linecap:butt;stroke-linejoin:miter;stroke-opacity:1"
           d="m -60.4762,-599.092 c 11.1505,15.686 22.3008,31.372 42.1133,29.828 8.55245,-0.666 18.718837,-4.543 29.0906,-8.939 13.6552,-5.789 27.6664,-12.478 38.8189,-13.928 13.8283,-1.798 23.2612,4.46 34.251,9.194 4.6056,1.984 9.4846,3.7 15.0751,4.444 18.3613,2.444 44.3953,-5.601 67.8743,3.368 0.728,0.279 1.454,0.573 2.177,0.885 21.164,9.126 39.958,32.98 53.996,46.311 1.903,1.807 3.719,3.421 5.441,4.779 14.426,11.37 22.3,4.756 30.175,-1.859"
           id="path1005" />
        <path
           style="opacity:1;fill:none;fill-opacity:1;stroke:#3dceaf;stroke-width:0.264583px;stroke-linecap:butt;stroke-linejoin:miter;stroke-opacity:1"
           d="m -61.77,-594.426 c 11.5502,13.493 23.1003,26.985 42.6358,25.007 8.7284,-0.984 18.941876,-4.738 29.3371,-8.647 13.6489,-5.153 27.6137,-10.613 38.9048,-11.318 13.7246,-1.049 23.3594,5.262 34.3788,9.551 4.6648,1.793 9.5703,3.202 15.1268,3.62 18.2607,1.366 43.5417,-7.97 66.6197,-0.998 0.72,0.212 1.439,0.44 2.155,0.685 21.33,6.82 40.702,28.184 55.124,40.053 1.961,1.608 3.83,3.041 5.604,4.241 14.488,10.159 22.548,3.864 30.609,-2.43"
           id="path1007" />
        <path
           style="opacity:1;fill:none;fill-opacity:1;stroke:#38c6a9;stroke-width:0.264583px;stroke-linecap:butt;stroke-linejoin:miter;stroke-opacity:1"
           d="m -63.0639,-589.759 c 11.9501,11.298 23.8999,22.596 43.1584,20.185 8.9043,-1.303 19.164914,-4.933 29.58371,-8.354 13.64249,-4.518 27.56089,-8.749 38.99059,-8.709 13.6208,-0.301 23.4575,6.064 34.5066,9.908 4.724,1.602 9.6559,2.703 15.1785,2.795 18.1601,0.288 42.6881,-10.339 65.3651,-5.363 0.713,0.146 1.424,0.307 2.133,0.484 21.496,4.514 41.445,23.389 56.253,33.796 2.018,1.408 3.941,2.66 5.765,3.703 14.551,8.947 22.797,2.973 31.044,-3.001"
           id="path1009" />
        <path
           style="opacity:1;fill:none;fill-opacity:1;stroke:#33bfa3;stroke-width:0.264583px;stroke-linecap:butt;stroke-linejoin:miter;stroke-opacity:1"
           d="m -64.3577,-585.093 c 12.3498,9.105 24.6994,18.209 43.681,15.364 9.0802,-1.621 19.38785,-5.128 29.83018,-8.061 13.63612,-3.883 27.50822,-6.886 39.07642,-6.101 13.5171,0.448 23.5557,6.867 34.6344,10.266 4.7832,1.411 9.7416,2.205 15.2302,1.971 18.0595,-0.791 41.8345,-12.708 64.1105,-9.729 0.705,0.08 1.408,0.174 2.11,0.284 21.663,2.208 42.189,18.593 57.382,27.538 2.076,1.208 4.052,2.28 5.928,3.165 14.613,7.735 23.045,2.082 31.478,-3.572"
           id="path1011" />
        <path
           style="opacity:1;fill:none;fill-opacity:1;stroke:#2eb79d;stroke-width:0.264583px;stroke-linecap:butt;stroke-linejoin:miter;stroke-opacity:1"
           d="m -65.6516,-580.426 c 12.7496,6.91 25.499,13.82 44.2036,10.541 9.2561,-1.938 19.61089,-5.322 30.07675,-7.768 13.62965,-3.247 27.45545,-5.021 39.16225,-3.491 13.4133,1.196 23.6538,7.669 34.7622,10.623 4.8424,1.221 9.8273,1.706 15.2819,1.146 17.9599,-1.868 40.9809,-15.077 62.8559,-14.093 0.697,0.013 1.393,0.04 2.088,0.082 21.828,-0.098 42.932,13.798 58.51,21.281 2.134,1.008 4.163,1.899 6.091,2.628 14.675,6.523 23.293,1.19 31.912,-4.144"
           id="path1013" />
        <path
           style="opacity:1;fill:none;fill-opacity:1;stroke:#29af97;stroke-width:0.264583px;stroke-linecap:butt;stroke-linejoin:miter;stroke-opacity:1"
           d="m -66.9454,-575.759 c 13.1493,4.716 26.2985,9.431 44.7261,5.719 9.432,-2.257 19.83393,-5.517 30.32332,-7.475 13.62328,-2.612 27.40278,-3.157 39.24808,-0.882 13.3096,1.944 23.752,8.471 34.89,10.98 4.9017,1.03 9.913,1.207 15.3336,0.322 17.8593,-2.947 40.1273,-17.446 61.6013,-18.459 0.689,-0.053 1.378,-0.093 2.066,-0.118 21.994,-2.405 43.675,9.002 59.638,15.023 2.192,0.809 4.275,1.519 6.254,2.09 14.737,5.311 23.541,0.298 32.346,-4.715"
           id="path1015" />
        <path
           style="opacity:1;fill:none;fill-opacity:1;stroke:#24a891;stroke-width:0.264583px;stroke-linecap:butt;stroke-linejoin:miter;stroke-opacity:1"
           d="m -68.2392,-571.093 c 13.549,2.522 27.098,5.044 45.2487,0.898 9.6079,-2.575 20.05687,-5.712 30.56978,-7.182 13.61692,-1.977 27.35002,-1.293 39.33392,1.726 13.2059,2.694 23.8501,9.274 35.0178,11.338 4.9609,0.839 9.9986,0.709 15.3852,-0.503 17.7588,-4.024 39.2728,-19.815 60.3468,-22.824 0.681,-0.12 1.363,-0.226 2.044,-0.319 22.16,-4.71 44.418,4.207 60.767,8.766 2.249,0.609 4.385,1.138 6.416,1.552 14.799,4.1 23.79,-0.593 32.78,-5.286"
           id="path1017" />
        <path
           style="opacity:1;fill:none;fill-opacity:1;stroke:#1ea08b;stroke-width:0.264583px;stroke-linecap:butt;stroke-linejoin:miter;stroke-opacity:1"
           d="m -69.5331,-566.426 c 13.9489,0.328 27.8976,0.655 45.7713,-3.924 9.7838,-2.893 20.27991,-5.907 30.81635,-6.889 13.61055,-1.342 27.29725,0.571 39.41975,4.335 13.1021,3.442 23.9483,10.076 35.1456,11.695 5.0201,0.648 10.0843,0.21 15.4369,-1.327 17.6582,-5.103 38.4192,-22.184 59.0922,-27.19 0.673,-0.186 1.347,-0.359 2.021,-0.519 22.327,-7.017 45.163,-0.589 61.896,2.508 2.307,0.409 4.497,0.758 6.579,1.014 14.862,2.888 24.038,-1.484 33.214,-5.856"
           id="path1019" />
        <path
           style="opacity:1;fill:none;fill-opacity:1;stroke:#199985;stroke-width:0.264583px;stroke-linecap:butt;stroke-linejoin:miter;stroke-opacity:1"
           d="m -70.8269,-561.76 c 14.3486,-1.866 28.6971,-3.732 46.2938,-8.745 9.9598,-3.212 20.50295,-6.102 31.06292,-6.597 13.60418,-0.706 27.24458,2.436 39.50558,6.945 12.9984,4.19 24.0465,10.878 35.2734,12.052 5.0793,0.457 10.17,-0.289 15.4886,-2.152 17.5576,-6.181 37.5656,-24.553 57.8376,-31.555 0.666,-0.252 1.332,-0.492 1.999,-0.719 22.493,-9.323 45.906,-5.385 63.024,-3.75 2.365,0.209 4.608,0.378 6.741,0.477 14.925,1.676 24.287,-2.376 33.649,-6.428"
           id="path1021" />
        <path
           style="opacity:1;fill:none;fill-opacity:1;stroke:#14917f;stroke-width:0.264583px;stroke-linecap:butt;stroke-linejoin:miter;stroke-opacity:1"
           d="m -72.1208,-557.093 c 14.7484,-4.06 29.4967,-8.121 46.8164,-13.568 10.1357,-3.529 20.72599,-6.296 31.30949,-6.303 13.59781,-0.071 27.19181,4.299 39.59141,9.554 12.8946,4.938 24.1446,11.68 35.4012,12.409 5.1385,0.267 10.2557,-0.787 15.5403,-2.976 17.458,-7.259 36.712,-26.922 56.583,-35.921 0.658,-0.318 1.317,-0.625 1.977,-0.92 22.659,-11.629 46.649,-10.18 64.153,-10.007 2.421,0.01 4.719,-0.003 6.903,-0.061 14.987,0.464 24.535,-3.268 34.083,-6.999"
           id="path1023" />
        <path
           style="opacity:1;fill:none;fill-opacity:1;stroke:#0f8979;stroke-width:0.264583px;stroke-linecap:butt;stroke-linejoin:miter;stroke-opacity:1"
           d="m -73.4146,-552.427 c 15.1481,-6.254 30.2962,-12.508 47.339,-18.389 10.3115,-3.847 20.94892,-6.491 31.55595,-6.01 13.59145,0.564 27.13915,6.163 39.67725,12.162 12.7909,5.688 24.2428,12.483 35.529,12.767 5.1977,0.076 10.3413,-1.286 15.592,-3.801 17.3574,-8.337 35.8584,-29.291 55.3284,-40.286 0.65,-0.385 1.302,-0.758 1.954,-1.12 22.825,-13.935 47.393,-14.977 65.282,-16.264 2.479,-0.191 4.83,-0.384 7.066,-0.6 15.049,-0.748 24.783,-4.159 34.517,-7.57"
           id="path1025" />
        <path
           style="opacity:1;fill:none;fill-opacity:1;stroke:#0a8273;stroke-width:0.264583px;stroke-linecap:butt;stroke-linejoin:miter;stroke-opacity:1"
           d="m -74.7084,-547.76 c 15.5478,-8.448 31.0957,-16.897 47.8615,-23.211 10.4875,-4.166 21.17196,-6.686 31.80252,-5.718 13.58508,1.201 27.08638,8.028 39.76308,14.772 12.6871,6.436 24.3409,13.285 35.6568,13.124 5.257,-0.115 10.427,-1.784 15.6437,-4.626 17.2568,-9.414 35.0048,-31.659 54.0738,-44.651 0.642,-0.451 1.287,-0.891 1.932,-1.321 22.991,-16.241 48.136,-19.772 66.41,-22.521 2.537,-0.391 4.942,-0.765 7.229,-1.138 15.111,-1.959 25.031,-5.05 34.951,-8.141"
           id="path1027" />
        <path
           style="opacity:1;fill:none;fill-opacity:1;stroke:#057a6d;stroke-width:0.264583px;stroke-linecap:butt;stroke-linejoin:miter;stroke-opacity:1"
           d="m -76.0023,-543.094 c 15.9477,-10.642 31.8953,-21.284 48.3841,-28.032 10.6634,-4.484 21.395,-6.881 32.04909,-5.425 13.57861,1.836 27.03361,9.892 39.84891,17.381 12.5834,7.184 24.4391,14.087 35.7846,13.481 5.3162,-0.306 10.5127,-2.283 15.6954,-5.45 17.1562,-10.493 34.1512,-34.029 52.8192,-49.017 0.634,-0.517 1.271,-1.024 1.91,-1.521 23.157,-18.547 48.879,-24.568 67.539,-28.779 2.594,-0.591 5.052,-1.145 7.391,-1.675 15.173,-3.172 25.279,-5.942 35.385,-8.713"
           id="path1029" />
        <path
           style="opacity:1;fill:none;fill-opacity:1;stroke:#007367;stroke-width:0.264583px;stroke-linecap:butt;stroke-linejoin:miter;stroke-opacity:1"
           d="m -77.2961,-538.427 c 16.3474,-12.836 32.6948,-25.673 48.9067,-32.854 10.8392,-4.802 21.61794,-7.076 32.29556,-5.132 13.57224,2.471 26.98094,11.756 39.93474,19.99 12.4797,7.932 24.5372,14.889 35.9124,13.838 5.3754,-0.497 10.5984,-2.782 15.747,-6.275 17.0557,-11.571 33.2967,-36.397 51.5647,-53.382 0.627,-0.583 1.256,-1.157 1.888,-1.722 23.323,-20.853 49.622,-29.363 68.667,-35.036 2.652,-0.79 5.164,-1.526 7.554,-2.213 15.235,-4.383 25.527,-6.834 35.819,-9.284"
           id="path1031" />
      </g>
    </g>
  </g>
</svg>
